<svg xmlns="http://www.w3.org/2000/svg" width="5.361" height="9.008" viewBox="206 28 5.361 9.008"><path d="m206.25 29.467 3.035 3.036-3.036 3.041a.864.864 0 0 0-.04 1.17.878.878 0 0 0 .04.044.865.865 0 0 0 .448.234c.27.051.56-.027.766-.234l3.649-3.648a.849.849 0 0 0 .241-.492.868.868 0 0 0-.241-.722l-3.649-3.643a.843.843 0 0 0-.436-.236.858.858 0 0 0-.713.178.88.88 0 0 0-.065.058.865.865 0 0 0-.234.448.858.858 0 0 0 .211.743.858.858 0 0 0 .023.023Z" fill="#9da5ac" fill-rule="evenodd" data-name="path"/></svg>