<svg xmlns="http://www.w3.org/2000/svg" width="19.758" height="19.837" viewBox="1681.596 -3966.408 19.758 19.837"><g data-name="Group 12133"><g data-name="aberto"><g data-name="icon-menu-carteira"><path d="M1691.482-3952.988a3.468 3.468 0 0 0 3.46-3.475 3.468 3.468 0 0 0-3.46-3.474" stroke-linejoin="round" stroke-linecap="round" stroke-width="1.2" stroke="#fff" fill="transparent" data-name="stroke"/><path d="M1684.76-3956.462v.051c.022 3.706 3.03 6.692 6.721 6.67a6.8 6.8 0 0 0 4.738-1.994 6.656 6.656 0 0 0 1.957-4.716 6.682 6.682 0 0 0 0-.04 6.828 6.828 0 0 0-1.957-4.756 6.604 6.604 0 0 0-4.699-1.965 6.593 6.593 0 0 0-.039 0" stroke-linejoin="round" stroke-linecap="round" stroke-width="1.2" stroke="#fff" fill="transparent" data-name="stroke"/><path d="M1701.354-3956.491c0 5.478-4.421 9.919-9.877 9.92-5.456.002-9.88-4.438-9.881-9.916 0-5.478 4.42-9.92 9.877-9.92h.003a9.857 9.857 0 0 1 6.987 2.907 9.94 9.94 0 0 1 2.89 7.009Z" stroke-linejoin="round" stroke-linecap="round" stroke-width="1.2" stroke="#fff" fill="transparent" data-name="borda"/></g></g></g></svg>