<svg xmlns="http://www.w3.org/2000/svg" width="34" height="34" viewBox="14 16 34 34"><g data-name="Group 12158"><path d="M39.04 32.4H30.4a307.584 307.584 0 0 1 0-.044c-.006-.646-.063-8.233-.005-8.585a.018.018 0 0 1 .005-.012 8.682 8.682 0 0 1 8.64 8.64Z" stroke-linejoin="round" stroke-linecap="round" stroke-width="1.2" stroke="#fff" fill="transparent" data-name="stroke"/><path d="M26.789 24.559a8.685 8.685 0 0 0-5.03 7.84c0 4.741 3.9 8.642 8.64 8.642 3.509 0 6.557-2.136 7.905-5.167" stroke-linejoin="round" stroke-linecap="round" stroke-width="1.2" stroke="#fff" fill="transparent" data-name="stroke"/><path d="M14 32.95a17 17 0 1 1 0 .1" fill="transparent" fill-rule="evenodd" data-name="borda"/></g></svg>