<svg xmlns="http://www.w3.org/2000/svg" width="34" height="34" viewBox="14 16 34 34"><g data-name="Group 12157"><path d="M30.323 27.3v10.18M33.365 28.873h-5.193a1.532 1.532 0 0 0-1.21.616 1.863 1.863 0 0 0-.382 1.142v.003a1.92 1.92 0 0 0 .096.604 1.61 1.61 0 0 0 1.496 1.154h4.301a1.534 1.534 0 0 1 1.217.623 1.863 1.863 0 0 1 .376 1.135 1.916 1.916 0 0 1-.098.607 1.61 1.61 0 0 1-1.495 1.15H26.58" stroke-linejoin="round" stroke-linecap="round" stroke-width="1.2" stroke="#fff" fill="transparent" data-name="stroke"/><path d="M28.513 22.919h3.62a7.651 7.651 0 0 1 7.65 7.651v3.642a7.651 7.651 0 0 1-7.65 7.651h-3.62a7.651 7.651 0 0 1-7.651-7.65V30.57a7.651 7.651 0 0 1 7.65-7.651z" stroke-linejoin="round" stroke-linecap="round" stroke-width="1.2" stroke="#fff" fill="transparent" data-name="stroke"/><path d="M14 32.95a17 17 0 1 1 0 .1" fill="transparent" fill-rule="evenodd" data-name="borda"/></g></svg>