<svg xmlns="http://www.w3.org/2000/svg" width="34" height="34" viewBox="14 16 34 34"><g data-name="Group 12155"><path d="m35.619 29.32-4.313 3.682-1.893-2.209-3.786 3.05" stroke-linejoin="round" stroke-linecap="round" stroke-width="1.2" stroke="#fff" fill="transparent" data-name="stroke"/><g data-name="Group 12165"><g data-name="Group 12166"><path d="m34.849 41.513-2.847-2.846a2.069 2.069 0 0 0-2.927 0l-2.846 2.846" stroke-linejoin="round" stroke-linecap="round" stroke-width="1.2" stroke="#fff" fill="transparent" data-name="stroke"/></g><path d="M24.018 25.426h12.896a2.587 2.587 0 0 1 2.586 2.587v7.258a2.587 2.587 0 0 1-2.586 2.587H24.018a2.587 2.587 0 0 1-2.587-2.587v-7.258a2.587 2.587 0 0 1 2.587-2.587z" stroke-linejoin="round" stroke-linecap="round" stroke-width="1.2" stroke="#fff" fill="transparent" data-name="stroke"/></g><path d="M14 32.95a17 17 0 1 1 0 .1" fill="transparent" fill-rule="evenodd" data-name="borda"/></g></svg>