<svg xmlns="http://www.w3.org/2000/svg" width="15.866" height="15.864" viewBox="1683.074 -3890.926 15.866 15.864"><path d="m1689.956-3875.837 1.182 1.183a.668.668 0 0 0 .348.181.667.667 0 0 0 .566-.157.67.67 0 0 0 .024-.024l2.344-2.343a.793.793 0 0 1 .633-.224.782.782 0 0 1 .571.354 1.782 1.782 0 0 1 .012.018c.12.195.19.389.24.56a7.587 7.587 0 0 1 .04.142c.01.032.018.065.027.098a1.134 1.134 0 0 0 .057.163 1.39 1.39 0 0 0 .398.52c.132.106.282.187.447.24.19.062.393.086.596.074a1.799 1.799 0 0 0 1.147-.496l.029-.026a1.808 1.808 0 0 0 .466-1.124 1.79 1.79 0 0 0 .003-.098 1.628 1.628 0 0 0-.076-.499 1.427 1.427 0 0 0-.238-.44 1.411 1.411 0 0 0-.523-.4c-.072-.034-.147-.054-.22-.074a5.446 5.446 0 0 1-.044-.012 5.504 5.504 0 0 1-.238-.07 2.094 2.094 0 0 1-.444-.2 1.74 1.74 0 0 1-.034-.02.776.776 0 0 1-.13-1.204l2.207-2.208a.662.662 0 0 0 .194-.47.652.652 0 0 0-.194-.468l-1.188-1.19a2.959 2.959 0 0 1-.763.928 2.928 2.928 0 0 1-.935.506 3.145 3.145 0 0 1-.979.153 3.366 3.366 0 0 1-2.316-.92 3.922 3.922 0 0 0-.012-.01.18.18 0 0 1-.022-.023 3.368 3.368 0 0 1-.951-2.286v-.067a3.152 3.152 0 0 1 .151-.976l.001-.002a2.904 2.904 0 0 1 .507-.935 2.904 2.904 0 0 1 .925-.76l-1.688-1.688a.659.659 0 0 0-.468-.195.661.661 0 0 0-.47.195l-2.252 2.25a.755.755 0 0 1-.533.231.68.68 0 0 1-.084-.005.778.778 0 0 1-.57-.33 1.705 1.705 0 0 1-.025-.036 2.063 2.063 0 0 1-.256-.581 7.332 7.332 0 0 1-.043-.158c-.023-.087-.043-.176-.082-.257a1.415 1.415 0 0 0-.4-.525 1.376 1.376 0 0 0-.44-.236 1.586 1.586 0 0 0-.505-.08c-.456 0-.923.181-1.244.5l-.018.018a1.796 1.796 0 0 0-.477 1.133 1.65 1.65 0 0 0 .075.597c.054.162.133.31.236.438a1.426 1.426 0 0 0 .525.404c.072.032.149.052.223.07a5.065 5.065 0 0 1 .032.01 4.823 4.823 0 0 1 .245.069c.169.054.354.13.535.258a.774.774 0 0 1 .327.57.766.766 0 0 1 .003.07.769.769 0 0 1-.228.546l-2.314 2.313a.66.66 0 0 0-.184.358.664.664 0 0 0 .184.58l1.683 1.682a2.945 2.945 0 0 1 .748-.901 2.913 2.913 0 0 1 .934-.507 3.16 3.16 0 0 1 .977-.152h.046a3.374 3.374 0 0 1 2.265.91 1.912 1.912 0 0 1 .02.019.47.47 0 0 1 .024.024 3.378 3.378 0 0 1 .95 2.286c.008.354-.042.708-.152 1.044a2.94 2.94 0 0 1-.505.934 2.985 2.985 0 0 1-.902.748Zm.585-5.036.003.003" stroke-linejoin="round" stroke-linecap="round" stroke-width="1.2" stroke="#fff" fill="transparent" data-name="shape"/></svg>