<svg xmlns="http://www.w3.org/2000/svg" width="13.29" height="13.291" viewBox="323.245 815.855 13.29 13.291"><path d="M334.591 817.803a6.605 6.605 0 0 0-4.702-1.948 6.653 6.653 0 0 0-6.644 6.646 6.653 6.653 0 0 0 6.646 6.645 6.653 6.653 0 0 0 6.644-6.648 6.6 6.6 0 0 0-1.944-4.695Zm-10.406 4.698a5.713 5.713 0 0 0 5.706 5.705 5.713 5.713 0 0 0 5.705-5.708 5.667 5.667 0 0 0-1.669-4.031 5.75 5.75 0 0 0-4.038-1.673 5.713 5.713 0 0 0-5.704 5.707Zm5.292-.453v3.422a.47.47 0 0 0 .47.47.47.47 0 0 0 .469-.47v-3.422a.47.47 0 0 0-.47-.47.47.47 0 0 0-.47.47Zm0-2.52v.643c0 .26.21.47.47.47a.47.47 0 0 0 .469-.47v-.642a.47.47 0 0 0-.47-.47.47.47 0 0 0-.47.47Z" fill="#4e5b61" fill-rule="evenodd" data-name="Path 3844"/></svg>