<svg xmlns="http://www.w3.org/2000/svg" width="15.146" height="15.146" viewBox="7.315 7.5 15.146 15.146"><g data-name="Path 3845"><path d="m19.848 18.854 2.86 2.861a.813.813 0 0 1 0 1.178.81.81 0 0 1-1.048.108.91.91 0 0 1-.13-.108l-2.86-2.86a6.631 6.631 0 0 1-4.123 1.43c-3.702 0-6.732-3.03-6.732-6.732A6.751 6.751 0 0 1 14.547 8c3.702 0 6.731 3.03 6.731 6.731 0 1.515-.505 3.03-1.43 4.123Zm-5.301.926a5.063 5.063 0 0 0 5.048-5.049 5.063 5.063 0 0 0-5.048-5.048 5.063 5.063 0 0 0-5.049 5.048 5.063 5.063 0 0 0 5.049 5.049Z" fill="#9da5ac" fill-rule="evenodd"/><path d="m19.848 18.854 2.86 2.861a.813.813 0 0 1 0 1.178.81.81 0 0 1-1.048.108.91.91 0 0 1-.13-.108l-2.86-2.86a6.631 6.631 0 0 1-4.123 1.43c-3.702 0-6.732-3.03-6.732-6.732A6.751 6.751 0 0 1 14.547 8c3.702 0 6.731 3.03 6.731 6.731 0 1.515-.505 3.03-1.43 4.123Zm-5.301.926a5.063 5.063 0 0 0 5.048-5.049 5.063 5.063 0 0 0-5.048-5.048 5.063 5.063 0 0 0-5.049 5.048 5.063 5.063 0 0 0 5.049 5.049Z" stroke-linejoin="round" stroke-linecap="round" stroke="#9da5ac" fill="transparent"/></g></svg>