<svg width="20" height="21" viewBox="0 0 20 21" fill="none" xmlns="http://www.w3.org/2000/svg">
<path fill-rule="evenodd" clip-rule="evenodd" d="M9.99 0.554688C4.47 0.554688 0 5.03469 0 10.5547C0 16.0747 4.47 20.5547 9.99 20.5547C15.52 20.5547 20 16.0747 20 10.5547C20 5.03469 15.52 0.554688 9.99 0.554688ZM11 11.5547V5.55469H9V11.5547H11ZM11 15.5547V13.5547H9V15.5547H11ZM2 10.5547C2 14.9747 5.58 18.5547 10 18.5547C14.42 18.5547 18 14.9747 18 10.5547C18 6.13469 14.42 2.55469 10 2.55469C5.58 2.55469 2 6.13469 2 10.5547Z" fill="#D13438"/>
</svg>
