<svg xmlns="http://www.w3.org/2000/svg" width="268.998" height="268.997" viewBox="0 0 268.998 268.997">
  <g id="Grupo_11084" data-name="Grupo 11084" transform="translate(-40 -176)">
    <path id="Caminho_3473" data-name="Caminho 3473" d="M596.926,97.506l-27,47.974a79.442,79.442,0,0,1-28.224,147.954l7.442,54.552c66.333-9.05,116.318-66.318,116.318-133.265A134.65,134.65,0,0,0,596.926,97.506Z" transform="translate(-356.468 95.778)" fill="#9e51ba"/>
    <path id="Caminho_3474" data-name="Caminho 3474" d="M571.641,150.783l26.947-48A134.489,134.489,0,0,0,541.325,85.84l-3.51,54.945A78.964,78.964,0,0,1,571.641,150.783Z" transform="translate(-358.251 90.434)" fill="#0dd1e3"/>
    <path id="Caminho_3475" data-name="Caminho 3475" d="M576.6,299.608a79.457,79.457,0,0,1,0-158.914c1.7,0,3.387.073,5.064.178l3.51-54.945q-4.282-.273-8.574-.274c-73.785,0-134.5,60.715-134.5,134.5s60.715,134.5,134.5,134.5a134.588,134.588,0,0,0,18.19-1.235l-7.446-54.55A80.09,80.09,0,0,1,576.6,299.608Z" transform="translate(-402.098 90.348)" fill="#ff8052"/>
  </g>
</svg>
