<svg xmlns="http://www.w3.org/2000/svg" width="34" height="34" viewBox="0 0 34 34">
  <g id="Grupo_12160" data-name="Grupo 12160" transform="translate(-1675 3899)">
    <circle id="borda" cx="17" cy="17" r="17" transform="translate(1675 -3899)" fill="#4c309b"/>
    <path id="shape" d="M151.383,222.445l1.182,1.183a.67.67,0,0,0,.939,0l2.343-2.343a.793.793,0,0,1,.633-.224.782.782,0,0,1,.571.354,2.512,2.512,0,0,1,.292.72,1.826,1.826,0,0,0,.084.261,1.379,1.379,0,0,0,.845.76,1.786,1.786,0,0,0,1.744-.422l.028-.026a1.8,1.8,0,0,0,.393-1.721,1.427,1.427,0,0,0-.237-.44,1.411,1.411,0,0,0-.523-.4,1.78,1.78,0,0,0-.265-.085,2.5,2.5,0,0,1-.716-.291.777.777,0,0,1-.13-1.2l2.207-2.207a.662.662,0,0,0,.194-.47.652.652,0,0,0-.194-.467l-1.188-1.19a2.959,2.959,0,0,1-.763.927,2.928,2.928,0,0,1-.935.506,3.346,3.346,0,0,1-3.3-.768.274.274,0,0,1-.033-.032,3.356,3.356,0,0,1-.8-3.329v0a2.942,2.942,0,0,1,1.432-1.694L153.5,208.15a.659.659,0,0,0-.469-.194h0a.661.661,0,0,0-.47.194l-2.252,2.251a.744.744,0,0,1-.617.226.778.778,0,0,1-.57-.33,2.3,2.3,0,0,1-.324-.775,1.553,1.553,0,0,0-.082-.257,1.415,1.415,0,0,0-.4-.524,1.376,1.376,0,0,0-.44-.236,1.774,1.774,0,0,0-1.748.42l-.019.017a1.792,1.792,0,0,0-.4,1.73,1.41,1.41,0,0,0,.236.438,1.426,1.426,0,0,0,.526.4,1.594,1.594,0,0,0,.255.079,2.3,2.3,0,0,1,.78.328.778.778,0,0,1,.1,1.186L145.3,215.42a.665.665,0,0,0,0,.939l1.683,1.682a2.945,2.945,0,0,1,.748-.9,2.913,2.913,0,0,1,.934-.507,3.361,3.361,0,0,1,3.288.758c.016.015.031.028.045.043a3.358,3.358,0,0,1,.8,3.33,2.94,2.94,0,0,1-.5.934A2.985,2.985,0,0,1,151.383,222.445Zm3.987-8.452" transform="translate(1539.173 -4097.682)" fill="none" stroke="#fff" stroke-linecap="round" stroke-linejoin="round" stroke-width="1.2"/>
  </g>
</svg>
