<svg xmlns="http://www.w3.org/2000/svg" width="16.999" height="17" viewBox="0 0 16.999 17">
  <path id="Path_3773" data-name="Path 3773" d="M376.658,270.907a1.258,1.258,0,0,1-1.258-1.257v-5.236a1.259,1.259,0,0,1,1.258-1.258h5.235a1.259,1.259,0,0,1,1.258,1.258v5.236a1.258,1.258,0,0,1-1.258,1.257Zm4.753-1.74v-4.291h-4.292v4.291Zm-13.985,1.74a1.267,1.267,0,0,1-1.276-1.257v-5.236a1.253,1.253,0,0,1,1.276-1.258h5.235a1.259,1.259,0,0,1,1.258,1.258v5.236a1.258,1.258,0,0,1-1.258,1.257Zm4.755-1.74v-4.291H367.89v4.291Zm4.476-7.509A1.26,1.26,0,0,1,375.4,260.4v-5.235a1.259,1.259,0,0,1,1.258-1.257h5.235a1.259,1.259,0,0,1,1.258,1.257V260.4a1.26,1.26,0,0,1-1.258,1.258Zm4.753-1.721v-4.291h-4.292v4.291Zm-13.985,1.721a1.254,1.254,0,0,1-1.276-1.258v-5.235a1.268,1.268,0,0,1,1.276-1.257h5.235a1.259,1.259,0,0,1,1.258,1.257V260.4a1.26,1.26,0,0,1-1.258,1.258Zm4.755-1.721v-4.291H367.89v4.291Z" transform="translate(-366.151 -253.907)" fill="#fff"/>
</svg>
