<svg xmlns="http://www.w3.org/2000/svg" width="30" height="30" viewBox="0 0 30 30">
  <g id="Group_11761" data-name="Group 11761" transform="translate(-205 4177)">
    <circle id="Icon.BG" cx="15" cy="15" r="15" transform="translate(205 -4177)" fill="#5d41ac"/>
    <path id="Union_229" data-name="Union 229" d="M.942,9.558a.943.943,0,0,1,0-1.886h9.1a.943.943,0,0,1,0,1.886Zm0-3.837a.943.943,0,0,1,0-1.885h9.1a.943.943,0,0,1,0,1.885Zm0-3.837A.942.942,0,0,1,.942,0h9.1a.942.942,0,0,1,0,1.885Z" transform="translate(214.429 -4166.714)" fill="#fff"/>
  </g>
</svg>
