<svg xmlns="http://www.w3.org/2000/svg" width="13.29" height="13.291" viewBox="0 0 13.29 13.291">
  <path id="Caminho_3844" data-name="Caminho 3844" d="M772.757,55.128a.47.47,0,0,0-.47.47V59.02a.47.47,0,1,0,.939,0V55.6A.47.47,0,0,0,772.757,55.128Zm0-2.519a.469.469,0,0,0-.47.47v.642a.47.47,0,1,0,.939,0v-.642A.469.469,0,0,0,772.757,52.609Zm4.645-1.256A6.645,6.645,0,1,0,772.7,62.7h0a6.646,6.646,0,0,0,4.7-11.343Zm-4.7,10.4h0a5.707,5.707,0,1,1,5.705-5.708A5.713,5.713,0,0,1,772.7,61.756Z" transform="translate(-766.056 -49.405)" fill="#4e5b61"/>
</svg>
