<svg xmlns="http://www.w3.org/2000/svg" xmlns:xlink="http://www.w3.org/1999/xlink" width="1108" height="366" viewBox="0 0 1108 366">
  <defs>
    <filter id="Chart.BG" x="0" y="0" width="1108" height="366" filterUnits="userSpaceOnUse">
      <feOffset dy="2" input="SourceAlpha"/>
      <feGaussianBlur stdDeviation="3" result="blur"/>
      <feFlood flood-opacity="0.039"/>
      <feComposite operator="in" in2="blur"/>
      <feComposite in="SourceGraphic"/>
    </filter>
    <clipPath id="clip-path">
      <rect width="984" height="14" fill="none"/>
    </clipPath>
    <linearGradient id="linear-gradient" x1="0.5" y1="-0.833" x2="0.5" y2="1" gradientUnits="objectBoundingBox">
      <stop offset="0" stop-color="#a3a1fb"/>
      <stop offset="1" stop-color="#a3a1fb" stop-opacity="0.102"/>
    </linearGradient>
    <linearGradient id="linear-gradient-2" x1="0.5" y1="-0.833" x2="0.5" y2="1" gradientUnits="objectBoundingBox">
      <stop offset="0" stop-color="#56d9fe"/>
      <stop offset="1" stop-color="#56d9fe" stop-opacity="0.11"/>
    </linearGradient>
    <clipPath id="clip-path-2">
      <rect width="1002" height="225.953" fill="none"/>
    </clipPath>
  </defs>
  <g id="Grupo_12165" data-name="Grupo 12165" transform="translate(-239 -239)">
    <g transform="matrix(1, 0, 0, 1, 239, 239)" filter="url(#Chart.BG)">
      <rect id="Chart.BG-2" data-name="Chart.BG" width="1090" height="348" rx="10" transform="translate(9 7)" fill="#fff"/>
    </g>
    <rect id="Retângulo_1470" data-name="Retângulo 1470" width="984.24" height="1.172" transform="translate(315 316.999)" fill="#eaf0f4"/>
    <text id="_12_000" data-name="12,000" transform="translate(301 321)" fill="#707b81" font-size="11" font-family="SegoeUI, Segoe UI"><tspan x="-32.033" y="0">12,000</tspan></text>
    <rect id="Retângulo_1470-2" data-name="Retângulo 1470" width="984.24" height="1.172" transform="translate(315 361.999)" fill="#eaf0f4"/>
    <text id="_10_000" data-name="10,000" transform="translate(301 366)" fill="#707b81" font-size="11" font-family="SegoeUI, Segoe UI"><tspan x="-32.033" y="0">10,000</tspan></text>
    <rect id="Retângulo_1470-3" data-name="Retângulo 1470" width="984.24" height="1.172" transform="translate(315 406.999)" fill="#eaf0f4"/>
    <text id="_8_000" data-name="8,000" transform="translate(301 411)" fill="#707b81" font-size="11" font-family="SegoeUI, Segoe UI"><tspan x="-26.104" y="0">8,000</tspan></text>
    <rect id="Retângulo_1470-4" data-name="Retângulo 1470" width="984.24" height="1.172" transform="translate(315 451.999)" fill="#eaf0f4"/>
    <text id="_6_000" data-name="6,000" transform="translate(301 456)" fill="#707b81" font-size="11" font-family="SegoeUI, Segoe UI"><tspan x="-26.104" y="0">6,000</tspan></text>
    <rect id="Retângulo_1470-5" data-name="Retângulo 1470" width="984.24" height="1.172" transform="translate(315 496.999)" fill="#eaf0f4"/>
    <text id="_4_000" data-name="4,000" transform="translate(301 501)" fill="#707b81" font-size="11" font-family="SegoeUI, Segoe UI"><tspan x="-26.104" y="0">4,000</tspan></text>
    <rect id="Retângulo_1470-6" data-name="Retângulo 1470" width="984.24" height="1.172" transform="translate(315 541.999)" fill="#eaf0f4"/>
    <text id="_0" data-name="0" transform="translate(299 546)" fill="#707b81" font-size="11" font-family="SegoeUI, Segoe UI"><tspan x="-5.93" y="0">0</tspan></text>
    <g id="page" transform="translate(337 554)" clip-path="url(#clip-path)">
      <g transform="translate(-295 -466)">
        <text id="Mês" transform="translate(307 477)" fill="#707b81" font-size="11" font-family="SegoeUI, Segoe UI"><tspan x="-10.149" y="0">Mês</tspan></text>
      </g>
      <g transform="translate(-213 -466)">
        <text id="Mês-2" data-name="Mês" transform="translate(307 477)" fill="#707b81" font-size="11" font-family="SegoeUI, Segoe UI"><tspan x="-10.149" y="0">Mês</tspan></text>
      </g>
      <g transform="translate(-131 -466)">
        <text id="Mês-3" data-name="Mês" transform="translate(307 477)" fill="#707b81" font-size="11" font-family="SegoeUI, Segoe UI"><tspan x="-10.149" y="0">Mês</tspan></text>
      </g>
      <g transform="translate(-49 -466)">
        <text id="Mês-4" data-name="Mês" transform="translate(307 477)" fill="#707b81" font-size="11" font-family="SegoeUI, Segoe UI"><tspan x="-10.149" y="0">Mês</tspan></text>
      </g>
      <g transform="translate(33 -466)">
        <text id="Mês-5" data-name="Mês" transform="translate(307 477)" fill="#707b81" font-size="11" font-family="SegoeUI, Segoe UI"><tspan x="-10.149" y="0">Mês</tspan></text>
      </g>
      <g transform="translate(115 -466)">
        <text id="Mês-6" data-name="Mês" transform="translate(307 477)" fill="#707b81" font-size="11" font-family="SegoeUI, Segoe UI"><tspan x="-10.149" y="0">Mês</tspan></text>
      </g>
      <g transform="translate(197 -466)">
        <text id="Mês-7" data-name="Mês" transform="translate(307 477)" fill="#707b81" font-size="11" font-family="SegoeUI, Segoe UI"><tspan x="-10.149" y="0">Mês</tspan></text>
      </g>
      <g transform="translate(279 -466)">
        <text id="Mês-8" data-name="Mês" transform="translate(307 477)" fill="#707b81" font-size="11" font-family="SegoeUI, Segoe UI"><tspan x="-10.149" y="0">Mês</tspan></text>
      </g>
      <g transform="translate(361 -466)">
        <text id="Mês-9" data-name="Mês" transform="translate(307 477)" fill="#707b81" font-size="11" font-family="SegoeUI, Segoe UI"><tspan x="-10.149" y="0">Mês</tspan></text>
      </g>
      <g transform="translate(443 -466)">
        <text id="Mês-10" data-name="Mês" transform="translate(307 477)" fill="#707b81" font-size="11" font-family="SegoeUI, Segoe UI"><tspan x="-10.149" y="0">Mês</tspan></text>
      </g>
      <g transform="translate(525 -466)">
        <text id="Mês-11" data-name="Mês" transform="translate(307 477)" fill="#707b81" font-size="11" font-family="SegoeUI, Segoe UI"><tspan x="-10.149" y="0">Mês</tspan></text>
      </g>
      <g transform="translate(607 -466)">
        <text id="Mês-12" data-name="Mês" transform="translate(307 477)" fill="#707b81" font-size="11" font-family="SegoeUI, Segoe UI"><tspan x="-10.149" y="0">Mês</tspan></text>
      </g>
    </g>
    <g id="chart" transform="translate(315.818 317.388)">
      <path id="Caminho_383" data-name="Caminho 383" d="M-757.182,11775.262s81.606,115.928,160.99,115.928,83.307-113.945,166.263-113.945,99.039,127.66,162.58,121.838,83.281-49.169,167.542-53.768,130.487,5.484,168.969,6.618,157.079-36.384,157.079-36.384" transform="translate(757.182 -11775.262)" fill="none" stroke="#a3a1fb" stroke-width="1"/>
      <path id="Caminho_384" data-name="Caminho 384" d="M226.24,11815.549s-118.6,37.516-157.079,36.384-86.042-10.789-170.3-6.188-102.667,47.515-166.208,53.338-79.358-122.29-162.314-122.29-87.145,114.4-166.529,114.4-160.99-115.928-160.99-115.928v224.754H226.24Z" transform="translate(757.182 -11775.262)" fill="url(#linear-gradient)"/>
    </g>
    <g id="chart-2" data-name="chart" transform="translate(315.818 360.952)">
      <path id="Caminho_383-2" data-name="Caminho 383" d="M-757.182,11743.464s81.606,69.467,160.99,69.467,84.018-115.979,166.974-115.979,98.328,124.2,161.869,120.707,84.446-52,168.707-54.759,129.322,25.827,167.8,26.506,157.079-21.8,157.079-21.8" transform="translate(757.182 -11696.952)" fill="none" stroke="#56d9fe" stroke-width="1"/>
      <path id="Caminho_384-2" data-name="Caminho 384" d="M226.24,11767.6s-118.6,22.48-157.079,21.8-83.543-29.262-167.8-26.506-105.167,51.27-168.707,54.759-78.913-120.707-161.869-120.707-87.59,115.979-166.974,115.979-160.99-69.467-160.99-69.467v134.678H226.24Z" transform="translate(757.182 -11696.952)" fill="url(#linear-gradient-2)"/>
    </g>
    <g id="Repetição_de_grade_79" data-name="Repetição de grade 79" transform="translate(309.55 316.895)" clip-path="url(#clip-path-2)">
      <g transform="translate(-95.55 -460.895)">
        <path id="Caminho_350" data-name="Caminho 350" d="M-768.547,11164.811v-225.953" transform="translate(870.097 -10477.963)" fill="none" stroke="#d6d9dd" stroke-width="1"/>
      </g>
      <g transform="translate(-13.55 -460.895)">
        <path id="Caminho_350-2" data-name="Caminho 350" d="M-768.547,11164.811v-225.953" transform="translate(870.097 -10477.963)" fill="none" stroke="#d6d9dd" stroke-width="1"/>
      </g>
      <g transform="translate(68.45 -460.895)">
        <path id="Caminho_350-3" data-name="Caminho 350" d="M-768.547,11164.811v-225.953" transform="translate(870.097 -10477.963)" fill="none" stroke="#d6d9dd" stroke-width="1"/>
      </g>
      <g transform="translate(150.45 -460.895)">
        <path id="Caminho_350-4" data-name="Caminho 350" d="M-768.547,11164.811v-225.953" transform="translate(870.097 -10477.963)" fill="none" stroke="#d6d9dd" stroke-width="1"/>
      </g>
      <g transform="translate(232.45 -460.895)">
        <path id="Caminho_350-5" data-name="Caminho 350" d="M-768.547,11164.811v-225.953" transform="translate(870.097 -10477.963)" fill="none" stroke="#d6d9dd" stroke-width="1"/>
      </g>
      <g transform="translate(314.45 -460.895)">
        <path id="Caminho_350-6" data-name="Caminho 350" d="M-768.547,11164.811v-225.953" transform="translate(870.097 -10477.963)" fill="none" stroke="#d6d9dd" stroke-width="1"/>
      </g>
      <g transform="translate(396.45 -460.895)">
        <path id="Caminho_350-7" data-name="Caminho 350" d="M-768.547,11164.811v-225.953" transform="translate(870.097 -10477.963)" fill="none" stroke="#d6d9dd" stroke-width="1"/>
      </g>
      <g transform="translate(478.45 -460.895)">
        <path id="Caminho_350-8" data-name="Caminho 350" d="M-768.547,11164.811v-225.953" transform="translate(870.097 -10477.963)" fill="none" stroke="#d6d9dd" stroke-width="1"/>
      </g>
      <g transform="translate(560.45 -460.895)">
        <path id="Caminho_350-9" data-name="Caminho 350" d="M-768.547,11164.811v-225.953" transform="translate(870.097 -10477.963)" fill="none" stroke="#d6d9dd" stroke-width="1"/>
      </g>
      <g transform="translate(642.45 -460.895)">
        <path id="Caminho_350-10" data-name="Caminho 350" d="M-768.547,11164.811v-225.953" transform="translate(870.097 -10477.963)" fill="none" stroke="#d6d9dd" stroke-width="1"/>
      </g>
      <g transform="translate(724.45 -460.895)">
        <path id="Caminho_350-11" data-name="Caminho 350" d="M-768.547,11164.811v-225.953" transform="translate(870.097 -10477.963)" fill="none" stroke="#d6d9dd" stroke-width="1"/>
      </g>
      <g transform="translate(806.45 -460.895)">
        <path id="Caminho_350-12" data-name="Caminho 350" d="M-768.547,11164.811v-225.953" transform="translate(870.097 -10477.963)" fill="none" stroke="#d6d9dd" stroke-width="1"/>
      </g>
      <g transform="translate(888.45 -460.895)">
        <path id="Caminho_350-13" data-name="Caminho 350" d="M-768.547,11164.811v-225.953" transform="translate(870.097 -10477.963)" fill="none" stroke="#d6d9dd" stroke-width="1"/>
      </g>
    </g>
  </g>
</svg>
