<svg xmlns="http://www.w3.org/2000/svg" xmlns:xlink="http://www.w3.org/1999/xlink" width="100.051" height="35.211" viewBox="0 0 100.051 35.211">
  <defs>
    <linearGradient id="linear-gradient" x1="0.497" y1="-0.212" x2="0.497" y2="0.667" gradientUnits="objectBoundingBox">
      <stop offset="0" stop-color="#308ab8"/>
      <stop offset="1" stop-color="#88cfbe"/>
    </linearGradient>
    <linearGradient id="linear-gradient-2" y1="0.499" x2="0.998" y2="0.499" gradientUnits="objectBoundingBox">
      <stop offset="0" stop-color="#69c6b7"/>
      <stop offset="1" stop-color="#d3e5a0"/>
    </linearGradient>
    <linearGradient id="linear-gradient-3" x1="0.002" y1="0.501" x2="1" y2="0.501" gradientUnits="objectBoundingBox">
      <stop offset="0" stop-color="#874c9e"/>
      <stop offset="1" stop-color="#e73f48"/>
    </linearGradient>
    <linearGradient id="linear-gradient-4" x1="0.496" y1="-0.364" x2="0.496" y2="1.194" gradientUnits="objectBoundingBox">
      <stop offset="0" stop-color="#f69179"/>
      <stop offset="1" stop-color="#ffce74"/>
    </linearGradient>
  </defs>
  <g id="Group_11087" data-name="Group 11087" transform="translate(-109.949)">
    <path id="Path_1882" data-name="Path 1882" d="M93.269,0H6.782A6.8,6.8,0,0,0,0,6.782V28.429a6.8,6.8,0,0,0,6.782,6.782H93.269a6.8,6.8,0,0,0,6.782-6.782V6.782A6.842,6.842,0,0,0,93.269,0Z" transform="translate(109.949)"/>
    <path id="Path_1883" data-name="Path 1883" d="M17.877,43.613a1.184,1.184,0,0,1-.343-.719,2.946,2.946,0,0,1-.034-.548V23.267a3.323,3.323,0,0,1,.034-.582,1.269,1.269,0,0,1,.274-.617c.034-.034.034-.069.069-.069l.137.137L28.6,32.721l.1.1-.069.069q-5.343,5.292-10.687,10.652C17.911,43.579,17.877,43.579,17.877,43.613Z" transform="translate(98.444 -14.78)" fill="url(#linear-gradient)"/>
    <path id="Path_1884" data-name="Path 1884" d="M29.389,32.184l-.1-.1Q24.046,26.789,18.737,21.5L18.6,21.36a.074.074,0,0,1,.069-.069,1.066,1.066,0,0,1,.959-.24,2,2,0,0,1,.754.274c1.267.719,2.569,1.439,3.836,2.192,1.336.754,2.637,1.507,3.973,2.261,1.439.822,2.911,1.644,4.35,2.466.171.1.308.171.48.274.034,0,.034.034.069.034-.343.343-.719.685-1.062,1.062l-2.535,2.535c-.034-.034-.069,0-.1.034Z" transform="translate(97.72 -14.14)" fill="url(#linear-gradient-2)"/>
    <path id="Path_1885" data-name="Path 1885" d="M29.324,53.6h0c.034.034.069.069.1.069l.959.959,2.6,2.6c-.206.1-.411.24-.617.343-3.391,1.918-6.782,3.871-10.207,5.789a2.831,2.831,0,0,0-.445.24c-.377.24-.788.445-1.165.685a2.731,2.731,0,0,1-.548.274,1.8,1.8,0,0,1-.582.137,1.094,1.094,0,0,1-.925-.343.074.074,0,0,1,.069-.069L29.255,53.6A.047.047,0,0,0,29.324,53.6Z" transform="translate(97.786 -35.556)" fill="url(#linear-gradient-3)"/>
    <path id="Path_1886" data-name="Path 1886" d="M53.831,50.2l-2.6-2.6-.959-.959c-.034-.034-.034-.069-.069-.069.034-.034.034-.069.069-.069L52.8,43.962c.343-.343.719-.685,1.062-1.062.171.069.308.171.445.24,1.267.719,2.535,1.439,3.836,2.158a1.989,1.989,0,0,1,.651.548,1.075,1.075,0,0,1,.24.719,1.32,1.32,0,0,1-.206.617,2.147,2.147,0,0,1-.651.582c-.48.274-.959.548-1.4.822-.925.548-1.884,1.062-2.809,1.61Z" transform="translate(76.944 -28.521)" fill="url(#linear-gradient-4)"/>
    <path id="Path_1887" data-name="Path 1887" d="M96.771,42.276a3.151,3.151,0,0,0-3.22,3.22,3.237,3.237,0,0,0,6.474,0A3.141,3.141,0,0,0,96.771,42.276ZM98,46.969a1.705,1.705,0,0,1-1.3.48,1.817,1.817,0,0,1-1.747-1.713A2.154,2.154,0,0,1,95.3,44.3a1.8,1.8,0,0,1,3.048.171A2.115,2.115,0,0,1,98,46.969Zm49.426-4.521H146.3c-.206,0-.206,0-.308.206-.308.754-.582,1.473-.856,2.226-.206.548-.445,1.13-.651,1.678q-.1-.051-.1-.1c-.206-.445-.377-.925-.548-1.37-.343-.822-.685-1.61-.993-2.432a.257.257,0,0,0-.274-.171h-1.2c-.1,0-.137.034-.069.137a.12.12,0,0,0,.034.069c.48,1.13.993,2.226,1.473,3.357.308.651.582,1.336.891,1.987a.437.437,0,0,1,0,.411c-.137.274-.24.548-.377.822-.308.651-.582,1.336-.891,1.987-.069.171-.069.206.137.206h1.1c.137,0,.206-.034.24-.171.137-.308.274-.651.411-.959,1.1-2.535,2.192-5.069,3.322-7.6.034-.069.034-.137.069-.206A.334.334,0,0,0,147.43,42.448Zm-43.6-.171a3.161,3.161,0,0,0-3.22,3.254,3.237,3.237,0,1,0,3.22-3.254Zm1.3,4.624a1.771,1.771,0,0,1-2.877-.514,1.938,1.938,0,0,1-.206-.822,1.876,1.876,0,0,1,.719-1.644,1.779,1.779,0,0,1,2.6.445A2.164,2.164,0,0,1,105.128,46.9ZM92.763,43.27H88.619c-.274,0-.24-.034-.24.274v.822c0,.308-.034.274.274.274h2.809c.171,0,.206,0,.171.171A2.842,2.842,0,0,1,90.3,46.866a3.521,3.521,0,0,1-2.055.48,3.456,3.456,0,0,1-1.815-.582,3.659,3.659,0,0,1-1.507-4.008,3.584,3.584,0,0,1,4.453-2.569,3.166,3.166,0,0,1,1.336.719c.137.137.137.137.274,0l.548-.548c.274-.274.274-.274-.034-.514a4.9,4.9,0,0,0-4.145-1.028,4.8,4.8,0,0,0-2.74,1.541,5.045,5.045,0,0,0-1.336,3.117,3.561,3.561,0,0,0,.1,1.2,4.894,4.894,0,0,0,2.877,3.6,5.358,5.358,0,0,0,2.329.48,4.655,4.655,0,0,0,2.261-.617,4.078,4.078,0,0,0,1.884-2.192A5.443,5.443,0,0,0,93,43.475C92.969,43.27,92.969,43.27,92.763,43.27Zm48.3,1.3a2.274,2.274,0,0,0-1.028-1.815,3.216,3.216,0,0,0-3.322-.137,2.016,2.016,0,0,0-.925.925c-.068.137-.068.171.069.206.308.137.651.274.959.411a.152.152,0,0,0,.206-.069.945.945,0,0,1,.48-.411,1.789,1.789,0,0,1,1.713.137,1,1,0,0,1,.48.959h-.1a3.5,3.5,0,0,0-1.576-.308,2.99,2.99,0,0,0-1.61.514,1.95,1.95,0,0,0-.308,3.048,2.47,2.47,0,0,0,2.021.651,1.871,1.871,0,0,0,1.473-.822c0-.034.034-.034.1-.069v.548c0,.171,0,.171.171.171h.925c.308,0,.274.034.274-.274v-2.5A6.608,6.608,0,0,0,141.059,44.571Zm-1.37,1.576a1.682,1.682,0,0,1-1.1,1.2,1.606,1.606,0,0,1-1.13,0,.731.731,0,0,1-.548-.651.845.845,0,0,1,.411-.788,1.7,1.7,0,0,1,1.165-.274,2.436,2.436,0,0,1,1.1.24C139.723,45.941,139.723,45.976,139.689,46.147ZM134.722,48.2v-8.94c0-.206,0-.206-.206-.206h-.891c-.308,0-.274-.034-.274.274v9.043c0,.1.034.171.171.171h1.062c.1,0,.171-.034.171-.171A.257.257,0,0,1,134.722,48.2ZM122.46,43.715a2.937,2.937,0,0,0-4.59-.617,3.207,3.207,0,0,0-.891,2.98,3.215,3.215,0,0,0,5.72,1.37c.137-.171.1-.171-.034-.274-.274-.171-.514-.343-.788-.514-.137-.1-.137-.1-.24.034a1.841,1.841,0,0,1-1.747.754,1.66,1.66,0,0,1-1.233-.822c-.034-.069-.034-.137.034-.171.034-.034.069-.034.137-.069.651-.274,1.336-.548,1.987-.822s1.267-.514,1.918-.788c.171-.069.171-.1.1-.24A3.016,3.016,0,0,0,122.46,43.715Zm-1.37.548-1.233.514c-.445.171-.891.377-1.336.548-.034,0-.068.034-.137,0a1.74,1.74,0,0,1,2.295-1.747.99.99,0,0,1,.514.411C121.261,44.16,121.227,44.194,121.09,44.263Zm-7.227-1.644c0-.1-.034-.137-.137-.137h-1.062c-.1,0-.137.034-.137.137a.592.592,0,0,1-.034.343.178.178,0,0,1-.137-.069,1.944,1.944,0,0,0-.617-.411,2.612,2.612,0,0,0-2.363.137,3.244,3.244,0,0,0,.719,6.028,2.38,2.38,0,0,0,2.295-.617.047.047,0,0,1,.069,0,4.215,4.215,0,0,1-.1,1.13,1.464,1.464,0,0,1-.377.719,1.737,1.737,0,0,1-1.713.411,1.646,1.646,0,0,1-1.1-.925c-.069-.137-.069-.137-.24-.1-.308.137-.617.274-.925.377-.137.069-.137.069-.069.206a3.134,3.134,0,0,0,2.158,1.713,1.806,1.806,0,0,1,.411.1h.445a3.041,3.041,0,0,1,.48-.1,2.641,2.641,0,0,0,1.713-1.028,3.349,3.349,0,0,0,.617-2.021V42.722C113.863,42.653,113.863,42.619,113.863,42.619ZM112.218,46.8a1.551,1.551,0,0,1-1.336.651,1.734,1.734,0,0,1-1.713-1.4,2.018,2.018,0,0,1,.377-1.85,1.67,1.67,0,0,1,2.877.308A2.221,2.221,0,0,1,112.218,46.8Zm3.836-7.741h-.925c-.308,0-.274-.034-.274.274v8.94c0,.24,0,.24.24.24h.959c.24,0,.24,0,.24-.24V39.262C116.26,39.057,116.26,39.057,116.055,39.057Zm13.461,0c-1.1-.034-2.158,0-3.254,0-.274,0-.24-.034-.24.24v9.077c0,.1.034.171.171.171h1.1c.1,0,.171-.034.171-.137v-3.22c0-.24,0-.24.24-.24h1.644a3.442,3.442,0,0,0,1.644-.411,2.856,2.856,0,0,0,1.267-3.8A2.961,2.961,0,0,0,129.516,39.057Zm.206,4.521a7.112,7.112,0,0,1-1.2.034H127.7c-.24,0-.24,0-.24-.24V40.529c0-.206,0-.206.205-.206h1.884a1.64,1.64,0,0,1,1.61,1.541A1.7,1.7,0,0,1,129.721,43.578Z" transform="translate(55.206 -24.296)" fill="#fafafa"/>
    <path id="Union_21" data-name="Union 21" d="M39.417,2.538V1.98a1.835,1.835,0,1,1,3.658,0v.559a1.832,1.832,0,1,1-3.658,0Zm.775-.559v.6c0,.861.43,1.291,1.033,1.291s1.032-.43,1.032-1.291v-.6c0-.861-.43-1.334-1.032-1.334S40.191,1.076,40.191,1.98ZM0,4.475V.086H1.765c.731,0,1.248.387,1.248,1.076a.872.872,0,0,1-.732.947v.043a.989.989,0,0,1,.946,1.076c0,.817-.645,1.248-1.506,1.248Zm.775-.646h.688c.6,0,1.033-.128,1.033-.645,0-.473-.3-.688-.818-.688h-.9Zm0-1.893h.6q.9,0,.9-.645c0-.43-.3-.6-.689-.6H.775Zm34.468,2.5V.086h.775v3.7h1.893v.646Zm-4.777,0V.086H33.22V.731H31.241v1.2h1.85v.6h-1.85V3.787H33.22v.646Zm-4.948,0V.086H27.2a1.367,1.367,0,0,1,1.463,1.42A1.367,1.367,0,0,1,27.2,2.926h-.9V4.432Zm.775-2.109h.559c.645,0,1.032-.172,1.032-.775A.7.7,0,0,0,27.11.775h-.817Zm-8,2.109V.086h2.754V.731h-1.98v1.2h1.85v.6h-1.85V3.787h1.98v.646Zm-2.582,0-.99-1.593h-.043l-.99,1.593h-.861L14.2,2.237,12.824.086h.9l.947,1.635h.043L15.663.086h.861L15.233,2.281,16.61,4.432Zm-5.336,0V.086h.775V4.432Zm-2.625,0L7.358,3.27H5.852L5.465,4.432H4.733L6.239.086H7.1L8.563,4.432ZM6.068,2.668H7.229L6.627.86Z" transform="translate(139.441 7.476)" fill="#fafafa"/>
  </g>
</svg>
