<?xml version="1.0" encoding="utf-8"?>
<!-- Generator: Adobe Illustrator 16.0.0, SVG Export Plug-In . SVG Version: 6.00 Build 0)  -->
<!DOCTYPE svg PUBLIC "-//W3C//DTD SVG 1.1//EN" "http://www.w3.org/Graphics/SVG/1.1/DTD/svg11.dtd">
<svg version="1.1" id="Layer_1" xmlns="http://www.w3.org/2000/svg" xmlns:xlink="http://www.w3.org/1999/xlink" x="0px" y="0px"
	 width="90px" height="90px" viewBox="0 0 90 90" enable-background="new 0 0 90 90" xml:space="preserve">
<g display="none">
	
		<linearGradient id="Union_203_1_" gradientUnits="userSpaceOnUse" x1="15.2153" y1="75.5303" x2="15.2153" y2="74.5361" gradientTransform="matrix(70.382 0 0 -70.382 -1025.8826 5326.0078)">
		<stop  offset="0" style="stop-color:#B3679A"/>
		<stop  offset="1" style="stop-color:#CFA3C0"/>
	</linearGradient>
	<path id="Union_203" display="inline" fill="url(#Union_203_1_)" d="M10,45.005C9.998,25.674,25.666,10.003,44.996,10.001
		C64.326,9.999,79.998,25.667,80,44.997s-15.666,35-34.997,35.002c-0.001,0-0.002,0-0.003,0C25.681,79.979,10.023,64.325,10,45.005z
		 M24.009,68.465c12.948,11.603,32.852,10.513,44.455-2.435c4.776-5.33,7.595-12.129,7.989-19.277h-3.505
		C72.001,61.499,59.776,72.979,45,73c-6.825,0.018-13.417-2.48-18.515-7.02L24.009,68.465z M28.966,63.509
		c10.212,8.868,25.678,7.776,34.543-2.436c3.478-4.006,5.56-9.028,5.935-14.318H58.891C57.997,53.75,52.052,58.993,45,59.003
		c-3.11,0.01-6.132-1.032-8.579-2.953L28.966,63.509z M13.499,45.005c-0.005,7.749,2.858,15.228,8.038,20.99l13.538-13.531
		c0.016-0.016,0.026-0.025,0.043-0.041c0.011-0.013,0.022-0.024,0.035-0.036l8.1-8.1V13.554
		C26.572,14.507,13.526,28.297,13.499,45.005z M38.915,53.558c1.772,1.274,3.902,1.956,6.085,1.948
		c5.124-0.002,9.497-3.7,10.353-8.751h-9.635L38.915,53.558z M46.752,43.258h29.699c-0.907-16.012-13.687-28.794-29.699-29.704
		V43.258z M69.501,38.009c0-0.966,0.782-1.75,1.75-1.75c0.966,0,1.748,0.783,1.748,1.75c0,0.966-0.782,1.75-1.748,1.75l0,0
		C70.283,39.758,69.501,38.975,69.501,38.009c0-0.001,0-0.003,0-0.004V38.009z M62.5,38.009c-0.002-0.967,0.781-1.751,1.748-1.751
		c0.968,0,1.752,0.783,1.752,1.75c0,0.966-0.782,1.751-1.75,1.751c-0.967,0-1.75-0.785-1.75-1.751c0-0.001,0-0.001,0-0.002V38.009z
		 M55.501,38.009c-0.002-0.967,0.783-1.751,1.748-1.751c0.968,0,1.753,0.783,1.753,1.75c0,0.966-0.783,1.751-1.751,1.751l0,0
		c-0.965,0.002-1.748-0.778-1.75-1.743c0-0.004,0-0.007,0-0.011V38.009z M48.502,38.009c-0.002-0.967,0.783-1.751,1.749-1.751
		c0.967,0,1.752,0.783,1.752,1.75c0,0.966-0.783,1.751-1.75,1.751c0,0,0,0-0.002,0c-0.964,0.002-1.747-0.778-1.749-1.742
		c0-0.004,0-0.008,0-0.012V38.009z M65.998,31.009c0-0.967,0.783-1.751,1.751-1.752c0.967,0,1.75,0.783,1.752,1.75
		c0,0.966-0.783,1.75-1.75,1.751h-0.002c-0.968,0-1.751-0.785-1.751-1.751c0,0,0-0.001,0-0.001V31.009z M59,31.009
		c0-0.966,0.784-1.75,1.75-1.75c0.965,0,1.75,0.784,1.75,1.75c0,0.966-0.785,1.749-1.75,1.749l0,0
		C59.784,32.758,59,31.975,59,31.009c0-0.001,0-0.002,0-0.003V31.009z M52.001,31.009c0-0.966,0.784-1.75,1.75-1.75
		s1.75,0.784,1.75,1.75c0,0.966-0.784,1.749-1.75,1.749l0,0c-0.966,0-1.748-0.784-1.748-1.75c0-0.001,0-0.001,0-0.002L52.001,31.009
		z M62.5,24.006c-0.002-0.967,0.781-1.751,1.748-1.751c0.968,0,1.752,0.783,1.752,1.75c0,0.966-0.782,1.751-1.75,1.751
		C63.285,25.756,62.5,24.973,62.5,24.006z M55.501,24.006c-0.002-0.967,0.783-1.751,1.748-1.751c0.968,0,1.753,0.783,1.753,1.75
		c0,0.966-0.783,1.751-1.751,1.751l0,0c-0.965,0.002-1.748-0.778-1.75-1.743C55.501,24.011,55.501,24.009,55.501,24.006z
		 M48.502,24.006c-0.002-0.967,0.783-1.751,1.749-1.751c0.967,0,1.752,0.783,1.752,1.75c0,0.966-0.783,1.751-1.75,1.751
		c0,0,0,0-0.002,0c-0.964,0.002-1.747-0.778-1.749-1.742C48.502,24.012,48.502,24.009,48.502,24.006z M52.003,17.002
		c0.002-0.967,0.786-1.748,1.754-1.746c0.966,0.002,1.746,0.787,1.744,1.753c-0.002,0.965-0.784,1.747-1.75,1.746
		C52.785,18.753,52.003,17.969,52.003,17.002L52.003,17.002z"/>
</g>
<g display="none">
	
		<linearGradient id="Union_204_1_" gradientUnits="userSpaceOnUse" x1="14.7661" y1="76.1152" x2="14.7661" y2="75.2266" gradientTransform="matrix(78.7822 0 0 -78.7975 -1118.3218 6007.6631)">
		<stop  offset="0" style="stop-color:#6F425F"/>
		<stop  offset="1" style="stop-color:#BFA3B6"/>
	</linearGradient>
	<path id="Union_204" display="inline" fill="url(#Union_204_1_)" d="M10,49.776c0.015-16.688,13.541-30.214,30.23-30.229
		c5.003-0.004,9.927,1.252,14.32,3.649V22.73c0.004-0.422,0.169-0.827,0.462-1.131l11.138-11.14
		c0.623-0.623,1.632-0.623,2.255-0.001c0.3,0.301,0.468,0.709,0.467,1.134v9.545h9.546c0.878,0.005,1.588,0.721,1.583,1.6
		c-0.002,0.421-0.17,0.823-0.469,1.12l-11.14,11.139c-0.297,0.291-0.695,0.455-1.112,0.459h-0.471
		c6.384,11.739,4.261,26.278-5.209,35.704c-11.809,11.803-30.949,11.797-42.751-0.011C13.183,65.479,10,57.793,10,49.776z
		 M13.183,49.776c0.005,14.938,12.119,27.045,27.058,27.042c14.931-0.006,27.035-12.108,27.039-27.042
		c0.002-5.07-1.438-10.037-4.151-14.321H56.81l-15.449,15.45c-0.302,0.296-0.707,0.461-1.13,0.463
		c-0.883-0.005-1.595-0.726-1.589-1.608c0.002-0.417,0.168-0.817,0.461-1.114L54.55,33.212v-6.337
		c-4.283-2.714-9.249-4.153-14.319-4.149C25.3,22.746,13.202,34.846,13.183,49.776z M57.732,23.382v8.892h8.896l7.953-7.952h-7.303
		c-0.876-0.005-1.584-0.715-1.59-1.592v-7.304L57.732,23.382z M19.547,49.776c0.009-11.421,9.266-20.677,20.686-20.686
		c3.08-0.001,6.12,0.696,8.892,2.039c0.781,0.399,1.088,1.354,0.69,2.135c-0.383,0.748-1.284,1.067-2.053,0.728
		c-2.346-1.133-4.919-1.721-7.525-1.719c-9.667-0.003-17.507,7.832-17.509,17.5c-0.003,9.666,7.832,17.507,17.499,17.509
		c9.667,0.003,17.505-7.83,17.509-17.498c0-0.002,0-0.004,0-0.006c0.003-2.608-0.587-5.184-1.724-7.531
		c-0.378-0.792-0.041-1.74,0.75-2.118c0.793-0.377,1.74-0.041,2.119,0.751c4.922,10.299,0.563,22.636-9.734,27.56
		c-2.783,1.331-5.829,2.021-8.914,2.021C28.814,70.451,19.559,61.197,19.547,49.776z M29.095,49.776
		c0.008-6.148,4.99-11.131,11.139-11.139c0.156,0,0.315,0.016,0.46,0.016c0.896,0.045,1.593,0.793,1.576,1.689
		c-0.018,0.853-0.724,1.529-1.576,1.511c-0.011,0-0.021-0.001-0.032-0.001l-0.193-0.016c-0.078-0.014-0.156-0.019-0.235-0.017
		c-4.399-0.007-7.971,3.553-7.978,7.953c-0.008,4.399,3.553,7.971,7.952,7.978c4.398,0.007,7.97-3.553,7.979-7.951
		c0-0.008,0-0.015,0-0.023l-0.018-0.444c-0.038-0.872,0.637-1.611,1.512-1.653c0.869-0.028,1.602,0.642,1.654,1.51
		c0.017,0.304,0.032,0.444,0.032,0.592c-0.056,6.15-5.086,11.093-11.236,11.037c-6.073-0.054-10.984-4.963-11.038-11.037
		L29.095,49.776z"/>
</g>
<linearGradient id="Union_205_1_" gradientUnits="userSpaceOnUse" x1="15.7397" y1="76.0215" x2="15.7397" y2="75.1162" gradientTransform="matrix(62.5924 0 0 -77.3273 -940.1429 5888.5859)">
	<stop  offset="0" style="stop-color:#614F93"/>
	<stop  offset="1" style="stop-color:#B9B2D8"/>
</linearGradient>
<path id="Union_205" display="none" fill="url(#Union_205_1_)" d="M53.327,73.258v-8.327c0-2.251,0-4.411-4.665-7.345
	c0.087-0.044,0.176-0.081,0.266-0.115c1.135-0.482,2.197-0.967,3.252-1.466c4.012,3.077,4.462,5.861,4.462,8.943v8.329
	c0,1.837,1.489,3.327,3.328,3.327c1.838,0.002,3.329-1.488,3.329-3.327l0,0V64.95c0-5.082-1.448-8.977-4.896-12.377
	c0.951-0.633,1.85-1.28,2.7-1.962c3.833,3.946,5.543,8.541,5.543,14.322v8.328c0.044,3.679-2.903,6.695-6.581,6.737
	c-3.679,0.043-6.693-2.904-6.737-6.582c0-0.051,0-0.103,0-0.155V73.258z M23.333,73.258v-8.327c0-10.393,5.509-16.989,19.019-22.783
	c10.273-4.399,10.954-5.833,10.954-13.856v-1.666h-4.997c-0.921-0.003-1.663-0.752-1.661-1.672c0.001-0.404,0.149-0.793,0.417-1.096
	L58.723,10.54c0.654-0.689,1.743-0.717,2.433-0.063c0.021,0.021,0.043,0.042,0.063,0.063l11.497,13.126
	c0.396,0.314,0.624,0.795,0.615,1.301c-0.028,0.915-0.767,1.646-1.681,1.666h-5.019v1.666c0,15.352-5.862,20.464-19.019,26.109
	c-10.955,4.695-10.955,7.528-10.955,10.528v8.328c0,3.679-2.981,6.66-6.66,6.66s-6.66-2.981-6.66-6.66L23.333,73.258z
	 M51.976,23.298h2.997c0.92,0.002,1.664,0.747,1.667,1.666v3.332c0,9.776-1.813,12.14-12.976,16.921
	c-12.39,5.328-17.003,10.655-17.003,19.718v8.328c0,1.84,1.491,3.332,3.331,3.332c1.84,0,3.332-1.492,3.332-3.332v-8.328
	c0-4.547,0.951-8.442,12.974-13.589c12.541-5.381,17-9.659,17-23.049v-3.332c0.005-0.919,0.75-1.663,1.671-1.666h2.998l-7.995-9.126
	L51.976,23.298z M23.329,28.296V26.63h-4.995c-0.921-0.002-1.667-0.75-1.665-1.672c0-0.403,0.148-0.793,0.414-1.096L28.741,10.54
	c0.652-0.69,1.74-0.722,2.431-0.07c0.024,0.023,0.047,0.046,0.07,0.07l11.49,13.126c0.396,0.315,0.622,0.795,0.614,1.301
	c0.008,0.913-0.726,1.658-1.638,1.666c-0.015,0-0.029,0-0.044,0h-5.01v1.666c0,5.845,0.384,8.193,4.544,10.741
	c-0.045,0.031-0.095,0.054-0.148,0.068c-1.131,0.479-2.263,0.996-3.381,1.53c-3.564-2.781-4.345-6.011-4.345-12.338v-3.332
	c0.004-0.918,0.747-1.662,1.666-1.666h2.996l-7.993-9.128l-7.993,9.125h2.997c0.919,0.002,1.664,0.747,1.666,1.666v3.332
	c0,7.545,1.416,12.19,4.895,15.768c-0.93,0.634-1.811,1.301-2.68,2.017C25.112,42.048,23.329,36.722,23.329,28.296z"/>
<linearGradient id="Union_206_1_" gradientUnits="userSpaceOnUse" x1="14.6021" y1="76.0859" x2="14.6021" y2="75.2354" gradientTransform="matrix(82.3627 0 0 -78.6603 -1157.6892 5996.4775)">
	<stop  offset="0" style="stop-color:#4B76B2"/>
	<stop  offset="1" style="stop-color:#B3CCE4"/>
</linearGradient>
<path id="Union_206" display="none" fill="url(#Union_206_1_)" d="M48.183,78.427c-0.878-0.002-1.589-0.712-1.591-1.589v-3.183
	c-0.021-0.88-0.75-1.577-1.629-1.557c-0.851,0.02-1.536,0.705-1.556,1.557v3.183c-0.001,0.876-0.711,1.587-1.589,1.589H25.907
	c-0.879,0-1.591-0.713-1.591-1.591c0-0.88,0.712-1.591,1.591-1.591l0,0h0.303l7.306-35.063c-0.852-0.184-1.392-1.022-1.208-1.874
	c0.159-0.732,0.81-1.251,1.56-1.243h22.267c0.871-0.014,1.588,0.682,1.601,1.552c0.012,0.751-0.509,1.407-1.243,1.565l7.303,35.063
	h0.304c0.879,0,1.591,0.711,1.591,1.591c0,0.878-0.712,1.591-1.591,1.591H48.183z M49.771,73.655v1.59H60.54l-1.983-9.543H31.443
	l-1.986,9.543h10.77v-1.59c-0.035-2.636,2.073-4.8,4.709-4.836c2.634-0.034,4.799,2.073,4.834,4.708
	C49.771,73.57,49.771,73.612,49.771,73.655L49.771,73.655z M45.607,62.522h12.278l-0.925-4.377L45.607,62.522z M32.858,59.227
	c-0.016,0.017-0.049,0-0.064,0.017l-0.679,3.279h4.629l19.571-7.527l-0.99-4.759L32.858,59.227z M34.813,49.537l-1.254,5.981
	l21.124-8.45l-0.998-4.785L34.813,49.537z M35.579,45.832l14.525-5.581H36.742L35.579,45.832z M78.086,40.214l-15.91-3.182
	c-0.859-0.183-1.409-1.027-1.227-1.887c0.182-0.851,1.011-1.398,1.864-1.231l15.915,3.184c0.86,0.176,1.415,1.017,1.238,1.877
	c-0.151,0.741-0.803,1.272-1.561,1.271c-0.106-0.002-0.212-0.013-0.317-0.032L78.086,40.214z M10.033,38.976
	c-0.177-0.86,0.377-1.701,1.237-1.877c0.001,0,0.003,0,0.005,0l15.912-3.183c0.86-0.183,1.705,0.366,1.887,1.226
	c0.182,0.859-0.367,1.705-1.226,1.887c-0.008,0.002-0.016,0.003-0.024,0.005L11.91,40.215c-0.105,0.018-0.212,0.028-0.318,0.032
	C10.835,40.245,10.186,39.714,10.033,38.976z M52.953,33.886v-6.367H37.046v6.364h-3.18v-6.364c-0.879,0-1.592-0.712-1.592-1.591
	c0-0.878,0.712-1.591,1.59-1.592c0,0,0.001,0,0.002,0c0.008-5.53,4.072-10.217,9.545-11.011v-0.125
	c-0.02-0.878,0.675-1.607,1.554-1.628c0.878-0.02,1.606,0.676,1.626,1.554c0.001,0.025,0.001,0.049,0,0.074v0.125
	c5.474,0.795,9.536,5.481,9.546,11.011c0.879,0,1.591,0.713,1.591,1.592c0,0.878-0.712,1.59-1.591,1.591v6.364L52.953,33.886z
	 M37.046,24.336h15.905c0.001-4.392-3.56-7.953-7.951-7.954c-4.393-0.001-7.953,3.559-7.955,7.951
	C37.046,24.334,37.046,24.335,37.046,24.336L37.046,24.336z M43.41,32.293c-0.001-0.879,0.71-1.592,1.589-1.593
	s1.591,0.711,1.592,1.589s-0.709,1.592-1.588,1.593c-0.002,0-0.003,0-0.005,0C44.122,33.88,43.413,33.17,43.41,32.293L43.41,32.293z
	 M60.943,27.837c-0.178-0.857,0.373-1.696,1.229-1.875c0.002,0,0.003,0,0.005-0.001l15.911-3.183c0.86-0.176,1.702,0.378,1.878,1.24
	c0.177,0.86-0.378,1.702-1.238,1.878l-15.911,3.182c-0.105,0.018-0.211,0.029-0.317,0.032C61.745,29.11,61.095,28.578,60.943,27.837
	z M27.183,29.079l-15.908-3.182c-0.86-0.176-1.416-1.017-1.24-1.878c0.177-0.86,1.018-1.416,1.878-1.24l15.911,3.183
	c0.86,0.176,1.416,1.017,1.24,1.877c-0.152,0.741-0.805,1.272-1.561,1.272C27.396,29.109,27.29,29.098,27.183,29.079z"/>
<linearGradient id="Union_207_1_" gradientUnits="userSpaceOnUse" x1="15.4888" y1="76.2354" x2="15.4888" y2="75.3691" gradientTransform="matrix(66.0887 0 0 -80.7837 -978.6371 6168.5239)">
	<stop  offset="0" style="stop-color:#3E9DAA"/>
	<stop  offset="1" style="stop-color:#ACD5D8"/>
</linearGradient>
<path id="Union_207" display="none" fill="url(#Union_207_1_)" d="M65.685,78.406v-1.594c0-2.723,1.272-5.693,2.513-8.573
	c1.113-2.6,2.257-5.285,2.257-7.332V49.776c0-1.464,0-2.513-1.126-3.644c-0.84-0.613-1.943-0.734-2.898-0.318
	c-0.331,0.144-0.746,0.397-0.746,0.779v1.591c0,0.877-0.712,1.589-1.589,1.589c-0.879,0-1.59-0.712-1.59-1.589v-3.181
	c0-1.758-1.426-3.183-3.183-3.183c-1.759,0-3.184,1.425-3.184,3.183v1.59c0,0.878-0.713,1.591-1.591,1.591
	c-0.879,0-1.591-0.713-1.591-1.591v-3.185c0-1.756-1.425-3.18-3.181-3.18c-1.757,0-3.182,1.424-3.182,3.18v3.185
	c0,0.879-0.711,1.592-1.59,1.592c-0.878,0-1.591-0.713-1.591-1.592V24.325c0-1.757-1.423-3.181-3.18-3.181s-3.181,1.424-3.181,3.181
	v30.218c-0.066,1.645-0.783,3.195-1.993,4.312c-0.619,0.62-1.623,0.62-2.242,0.001s-0.62-1.623,0-2.242
	c0.595-0.523,0.971-1.252,1.054-2.04v-2.098c-1.207-0.806-2.299-1.772-3.244-2.872c-2.053-2.133-4.584-4.819-7.145-4.709
	c-1.275,0.13-2.458,0.725-3.324,1.668c3.442,3.541,5.965,7.872,7.349,12.613c0.892,3.127,2.375,6.056,4.37,8.624
	c1.514,1.513,4.567,4.549,7.477,5.995c0.538,0.275,0.877,0.828,0.879,1.433v3.179c0,0.879-0.712,1.59-1.59,1.59
	s-1.59-0.711-1.59-1.59v-2.225c-2.743-1.747-5.26-3.827-7.494-6.19c-0.042-0.039-0.08-0.082-0.115-0.127
	c-2.256-2.871-3.939-6.149-4.958-9.655c-1.375-4.778-4.02-9.094-7.651-12.487c-0.584-0.582-0.625-1.515-0.095-2.146
	c2.054-2.471,4.296-3.771,6.632-3.848c3.98-0.114,7.046,3.084,9.546,5.675c0.297,0.307,0.624,0.65,0.958,0.983V24.324
	c0-3.513,2.848-6.362,6.361-6.362c3.514,0,6.361,2.849,6.361,6.362v13.582c3.004-1.747,6.854-0.754,8.638,2.229
	c1.14-0.973,2.592-1.505,4.09-1.5c2.68,0.002,5.07,1.682,5.979,4.204c2.119-0.873,4.55-0.473,6.277,1.03
	c2.053,2.066,2.053,4.2,2.053,5.903v11.139c0,2.717-1.271,5.693-2.513,8.573c-1.114,2.59-2.258,6.872-2.258,8.925
	c0,0.878-0.713,1.591-1.591,1.591c-0.879,0-1.591-0.713-1.591-1.591L65.685,78.406z M50.018,32.609
	c-0.733-0.478-0.941-1.459-0.464-2.193c1.169-1.784,1.801-3.866,1.813-6c0.045-6.149-4.906-11.17-11.056-11.213
	c-6.149-0.043-11.17,4.907-11.213,11.057c-0.013,1.896,0.458,3.763,1.368,5.425c0.426,0.769,0.148,1.737-0.621,2.163
	c-0.769,0.427-1.737,0.148-2.163-0.62l0,0c-3.815-6.927-1.291-15.635,5.636-19.45c6.928-3.814,15.635-1.29,19.45,5.637
	c1.186,2.154,1.798,4.578,1.775,7.036c-0.015,2.737-0.82,5.411-2.321,7.7c-0.297,0.448-0.798,0.717-1.336,0.716
	C50.578,32.869,50.275,32.78,50.018,32.609z"/>
<linearGradient id="Union_208_1_" gradientUnits="userSpaceOnUse" x1="16.2847" y1="75.792" x2="16.2847" y2="74.8467" gradientTransform="matrix(56.122 0 0 -73.9986 -869.0013 5618.5488)">
	<stop  offset="0" style="stop-color:#44B98B"/>
	<stop  offset="1" style="stop-color:#A4D8C2"/>
</linearGradient>
<path id="Union_208" fill="url(#Union_208_1_)" d="M26.753,80c-4.581,0-8.295-3.712-8.298-8.292V45.16
	c0.015-3.293,1.967-6.27,4.981-7.596v-5.676c-0.177-11.91,9.336-21.708,21.247-21.885c11.909-0.176,21.708,9.336,21.885,21.247
	c0.003,0.213,0.003,0.426,0,0.639v5.676c3.013,1.327,4.964,4.303,4.977,7.596v26.548c0,4.578-3.713,8.292-8.293,8.292H26.753z
	 M21.779,45.16v26.548c0.008,2.744,2.23,4.967,4.975,4.974h36.498c2.743-0.007,4.966-2.229,4.974-4.974V45.16
	c-0.008-2.744-2.23-4.967-4.974-4.975H26.753C24.009,40.193,21.787,42.416,21.779,45.16z M56.615,31.888v4.979h6.637v-4.979
	C63.18,21.809,54.95,13.697,44.871,13.77c-9.976,0.071-18.046,8.141-18.117,18.118v4.979h6.636v-4.979
	c0-6.414,5.199-11.613,11.613-11.613S56.616,25.474,56.615,31.888L56.615,31.888z M36.712,31.888v4.979h16.584v-4.979
	c-0.049-4.581-3.802-8.254-8.383-8.206c-4.511,0.048-8.157,3.694-8.205,8.206H36.712z M43.346,65.071v-4.98
	c0-0.917,0.742-1.659,1.658-1.659s1.658,0.742,1.658,1.659l0,0v4.979c0,0.917-0.742,1.659-1.658,1.659s-1.658-0.742-1.658-1.659
	V65.071z"/>
<g>
</g>
<g>
</g>
<g>
</g>
<g>
</g>
<g>
</g>
<g>
</g>
</svg>
