<svg xmlns="http://www.w3.org/2000/svg" width="35" height="35" viewBox="0 0 35 35">
  <g id="Grupo_11876" data-name="Grupo 11876" transform="translate(-141 -293)">
    <g id="Componente_4_1" data-name="Componente 4 – 1" transform="translate(141 293)">
      <circle id="Elipse_812" data-name="Elipse 812" cx="17.5" cy="17.5" r="17.5" fill="#5d41ac"/>
    </g>
    <path id="Caminho_3781" data-name="Caminho 3781" d="M743.426,185.774a1.206,1.206,0,0,1-.543-.131L735.256,182a1.189,1.189,0,0,1-.715-1.143,1.173,1.173,0,0,1,.717-1.123l1.626-.795a.637.637,0,0,1,.307-.079h.028l-1.964-.938a1.188,1.188,0,0,1-.715-1.142,1.173,1.173,0,0,1,.717-1.124l1.626-.794a.631.631,0,0,1,.315-.094l-1.944-.924a1.271,1.271,0,0,1,0-2.287l7.631-3.65a1.194,1.194,0,0,1,.536-.127,1.3,1.3,0,0,1,.546.124l7.62,3.655a1.27,1.27,0,0,1,0,2.286l-1.938.923a.7.7,0,0,1,.348.115l1.595.775a1.174,1.174,0,0,1,.712,1.122,1.19,1.19,0,0,1-.716,1.143l-1.929.924a.643.643,0,0,1,.359.127l1.575.762a1.173,1.173,0,0,1,.712,1.121A1.192,1.192,0,0,1,751.59,182l-7.613,3.65A1.3,1.3,0,0,1,743.426,185.774Zm.008-1.777,6.527-3.127c-.328-.16-.594-.292-.792-.4a.629.629,0,0,1-.349-.412.619.619,0,0,1,.111-.512l.167-.323a.762.762,0,0,1,.093-.159l-5.213,2.5a1.31,1.31,0,0,1-.552.127,1.2,1.2,0,0,1-.542-.13l-5.253-2.513a.778.778,0,0,1,.124.181l.191.363a.575.575,0,0,1,.082.464.633.633,0,0,1-.357.416c-.13.071-.4.2-.783.392Zm0-4.1,6.523-3.126-.775-.373a.663.663,0,0,1-.274-.915l.19-.357a.541.541,0,0,1,.071-.135l-5.192,2.476a1.3,1.3,0,0,1-.551.127,1.206,1.206,0,0,1-.543-.131l-5.216-2.482a.75.75,0,0,1,.1.191l.174.323a.64.64,0,0,1-.221.868l-.837.406Zm0-4.08,6.521-3.125-6.521-3.124-6.538,3.124Z" transform="translate(-584.541 133.226)" fill="#fff"/>
  </g>
</svg>
