<svg xmlns="http://www.w3.org/2000/svg" width="35" height="35" viewBox="0 0 35 35">
  <g id="Grupo_11884" data-name="Grupo 11884" transform="translate(-670.941 -204.124)">
    <path id="Caminho_3785" data-name="Caminho 3785" d="M17.5,0A17.5,17.5,0,0,1,31.023,28.608,17.316,17.316,0,0,1,17.5,35a17.667,17.667,0,0,1-9.307-2.678A17.5,17.5,0,0,1,17.5,0Z" transform="translate(670.941 204.124)" fill="#dae0e3"/>
    <path id="Caminho_3771" data-name="Caminho 3771" d="M687.5,212.124h0a8.913,8.913,0,0,0-5.924,2.63,8.733,8.733,0,0,0-2.632,5.932,1.37,1.37,0,0,0,.381.994,1.3,1.3,0,0,0,.941.405h7.3a1.324,1.324,0,0,0,1.323-1.322v-7.318A1.338,1.338,0,0,0,687.5,212.124Zm-.424,8.132H680.81a7.217,7.217,0,0,1,6.267-6.264Z" fill="#fff"/>
    <path id="Caminho_3770" data-name="Caminho 3770" d="M694.641,214.864a8.84,8.84,0,0,0-4.09-2.538.821.821,0,0,0-1.043.788v.2a.829.829,0,0,0,.615.788,7.085,7.085,0,0,1,3.177,1.988,6.986,6.986,0,0,1,1.971,4.961,7.237,7.237,0,0,1-12.177,5.307,7.179,7.179,0,0,1-1.911-2.858.932.932,0,0,0-.868-.643h0a.91.91,0,0,0-.867,1.2,9.151,9.151,0,0,0,8.568,6.068,9.042,9.042,0,0,0,9.066-9.159A9.12,9.12,0,0,0,694.641,214.864Z" fill="#fff"/>
  </g>
</svg>
