<svg xmlns="http://www.w3.org/2000/svg" width="35" height="35" viewBox="0 0 35 35">
  <g id="Grupo_11884" data-name="Grupo 11884" transform="translate(-805.941 -197.124)">
    <path id="Caminho_3785" data-name="Caminho 3785" d="M17.5,0A17.5,17.5,0,1,1,0,17.5,17.5,17.5,0,0,1,17.5,0Z" transform="translate(805.941 197.124)" fill="#dae0e3"/>
    <path id="Caminho_3783" data-name="Caminho 3783" d="M655.082,185.457a.617.617,0,0,1-.474-.242l-2.453-3.136h-3.117l-2.425,3.122a.589.589,0,0,1-.482.256.632.632,0,0,1-.414-.164l-.294-.224a.6.6,0,0,1-.117-.852l1.668-2.138h-2.69a3.319,3.319,0,0,1-2.426-1.007,3.235,3.235,0,0,1-1.006-2.407V171.87a3.436,3.436,0,0,1,3.432-3.413h12.64a3.437,3.437,0,0,1,3.413,3.413v6.795a3.239,3.239,0,0,1-1.011,2.411,3.294,3.294,0,0,1-2.4,1h-2.708l1.656,2.125a.635.635,0,0,1,.139.487.586.586,0,0,1-.253.385l-.3.23A.532.532,0,0,1,655.082,185.457Zm-10.8-15.361a1.771,1.771,0,0,0-1.794,1.774v6.795a1.8,1.8,0,0,0,1.794,1.793h12.64a1.8,1.8,0,0,0,1.793-1.793V171.87a1.77,1.77,0,0,0-1.793-1.774Zm1.332,9.681a1.228,1.228,0,0,1-.018-2.455l1.971-2.328a1.183,1.183,0,0,1-.013-.183,1.218,1.218,0,0,1,1.239-1.221,1.254,1.254,0,0,1,1.209.962l1.732.965a1.163,1.163,0,0,1,.3-.06l2.346-3.194a1.337,1.337,0,0,1-.028-.284,1.23,1.23,0,1,1,1.341,1.24l-2.342,3.189a1.278,1.278,0,0,1,.028.284,1.247,1.247,0,0,1-1.239,1.221,1.217,1.217,0,0,1-1.2-.967l-1.732-.972a1.139,1.139,0,0,1-.4.076l-1.968,2.322a1.192,1.192,0,0,1,.013.183A1.217,1.217,0,0,1,645.618,179.777Z" transform="translate(170.088 44.667)" fill="#fff"/>
  </g>
</svg>
