<svg width="22" height="22" viewBox="0 0 22 22" fill="none" xmlns="http://www.w3.org/2000/svg">
<path d="M18.1365 1H3.86347C2.28201 1 1 2.43988 1 4.21605V13.239C1 15.0151 2.28201 16.455 3.86347 16.455H18.1365C19.7179 16.455 21 15.0151 21 13.239V4.21605C21 2.43988 19.7179 1 18.1365 1Z" stroke="white" stroke-width="1.2" stroke-linecap="round" stroke-linejoin="round"/>
<path d="M6.31073 21L9.46199 17.4607C9.67467 17.2217 9.92718 17.0321 10.2051 16.9027C10.4831 16.7733 10.781 16.7068 11.0819 16.7068C11.3828 16.7068 11.6806 16.7733 11.9586 16.9027C12.2366 17.0321 12.4891 17.2217 12.7017 17.4607L15.8519 21" stroke="white" stroke-width="1.2" stroke-linecap="round" stroke-linejoin="round"/>
<path d="M5.87024 12.0916L10.0619 8.30001L12.1572 11.0461L16.9312 6.47008" stroke="white" stroke-width="1.2" stroke-linecap="round" stroke-linejoin="round"/>
</svg>
