<svg width="22" height="22" viewBox="0 0 22 22" fill="none" xmlns="http://www.w3.org/2000/svg">
<path d="M20.1472 15.0197C19.4972 16.5021 18.4967 17.8044 17.2319 18.8147C15.9671 19.8249 14.4758 20.5128 12.8863 20.8193C11.2968 21.1257 9.65659 21.0415 8.10681 20.5739C6.55703 20.1063 5.14406 19.2692 3.98941 18.1348C2.83476 17.0003 1.97299 15.6024 1.47823 14.0612C0.983466 12.5201 0.870522 10.8818 1.14911 9.28735C1.42769 7.6929 2.08946 6.18997 3.0775 4.90782C4.06555 3.62568 5.35031 2.60271 6.82125 1.92689" stroke="white" stroke-width="1.2" stroke-linecap="round" stroke-linejoin="round"/>
<path d="M11.0001 10.9987C11.0001 10.9987 10.9214 1 11.0001 1C13.6484 1.01248 16.1847 2.06991 18.0573 3.94234C19.93 5.81477 20.9876 8.35075 21 10.9987H11.0001Z" stroke="white" stroke-width="1.2" stroke-linecap="round" stroke-linejoin="round"/>
</svg>
