<svg width="22" height="22" viewBox="0 0 22 22" fill="none" xmlns="http://www.w3.org/2000/svg">
<path d="M11 21C16.5228 21 21 16.5228 21 11C21 5.47715 16.5228 1 11 1C5.47715 1 1 5.47715 1 11C1 16.5228 5.47715 21 11 21Z" stroke="white" stroke-width="1.2" stroke-linecap="round" stroke-linejoin="round"/>
<path d="M11.0011 15.3529C13.4051 15.3529 15.354 13.404 15.354 10.9999C15.354 8.59586 13.4051 6.64698 11.0011 6.64698C8.59699 6.64698 6.6481 8.59586 6.6481 10.9999C6.6481 13.404 8.59699 15.3529 11.0011 15.3529Z" stroke="white" stroke-width="1.2" stroke-linecap="round" stroke-linejoin="round"/>
<path d="M4.3324 17.6789L7.19201 14.8192" stroke="white" stroke-width="1.2" stroke-linecap="round" stroke-linejoin="round"/>
<path d="M14.7511 7.26001L17.6107 4.4004" stroke="white" stroke-width="1.2" stroke-linecap="round" stroke-linejoin="round"/>
<path d="M17.6107 17.6789L14.7511 14.8192" stroke="white" stroke-width="1.2" stroke-linecap="round" stroke-linejoin="round"/>
<path d="M7.19201 7.26001L4.3324 4.4004" stroke="white" stroke-width="1.2" stroke-linecap="round" stroke-linejoin="round"/>
</svg>
