<svg width="14" height="14" viewBox="0 0 14 14" fill="none" xmlns="http://www.w3.org/2000/svg">
<g clip-path="url(#clip0_9_2)">
<path d="M6.70102 5.723C6.57637 5.723 6.45682 5.77252 6.36868 5.86066C6.28054 5.9488 6.23099 6.06835 6.23099 6.193V9.615C6.22806 9.67848 6.23807 9.74189 6.26034 9.80141C6.28262 9.86092 6.31668 9.9153 6.36056 9.96126C6.40445 10.0072 6.45723 10.0438 6.51565 10.0688C6.57408 10.0938 6.63692 10.1067 6.70047 10.1067C6.76402 10.1067 6.82692 10.0938 6.88534 10.0688C6.94377 10.0438 6.99655 10.0072 7.04043 9.96126C7.08432 9.9153 7.11838 9.86092 7.14065 9.80141C7.16293 9.74189 7.17294 9.67848 7.17001 9.615V6.195C7.17028 6.1332 7.15836 6.07195 7.13492 6.01476C7.11148 5.95757 7.07698 5.90556 7.03342 5.86172C6.98985 5.81788 6.93805 5.78306 6.88101 5.75926C6.82397 5.73545 6.76282 5.72313 6.70102 5.723V5.723ZM6.70102 3.204C6.63926 3.20387 6.57805 3.21594 6.52096 3.23951C6.46388 3.26308 6.41205 3.2977 6.36838 3.34137C6.32471 3.38504 6.29008 3.4369 6.26651 3.49399C6.24294 3.55107 6.23085 3.61224 6.23099 3.674V4.316C6.22806 4.37948 6.23807 4.44289 6.26034 4.50241C6.28262 4.56192 6.31668 4.61631 6.36056 4.66226C6.40445 4.70822 6.45723 4.7448 6.51565 4.7698C6.57408 4.79479 6.63692 4.80768 6.70047 4.80768C6.76402 4.80768 6.82692 4.79479 6.88534 4.7698C6.94377 4.7448 6.99655 4.70822 7.04043 4.66226C7.08432 4.61631 7.11838 4.56192 7.14065 4.50241C7.16293 4.44289 7.17294 4.37948 7.17001 4.316V3.674C7.17014 3.61233 7.15812 3.55124 7.13461 3.49422C7.1111 3.4372 7.07655 3.38538 7.03299 3.34172C6.98942 3.29807 6.93767 3.26343 6.88071 3.2398C6.82374 3.21617 6.76269 3.204 6.70102 3.204V3.204ZM11.346 1.948C10.5731 1.17617 9.62181 0.606766 8.57638 0.290197C7.53096 -0.0263726 6.42364 -0.0803479 5.35239 0.133047C4.28113 0.346441 3.27898 0.820625 2.43466 1.51363C1.59035 2.20664 0.9299 3.09709 0.511748 4.10619C0.0935963 5.11528 -0.0693566 6.2119 0.0373221 7.29898C0.144001 8.38606 0.517044 9.43008 1.12338 10.3386C1.72972 11.2472 2.55065 11.9923 3.51358 12.5079C4.4765 13.0236 5.55171 13.2939 6.64401 13.295V13.295C7.95801 13.2946 9.24243 12.9048 10.3349 12.1746C11.4274 11.4445 12.279 10.407 12.782 9.19304C13.2849 7.97912 13.4168 6.64334 13.1609 5.35451C12.9049 4.06567 12.2727 2.88162 11.344 1.952L11.346 1.948ZM6.64603 12.348C5.51725 12.3484 4.4137 12.0141 3.47494 11.3872C2.53619 10.7604 1.80439 9.86932 1.3721 8.82659C0.939815 7.78387 0.826456 6.63637 1.04636 5.52922C1.26625 4.42206 1.80949 3.40499 2.60745 2.60661C3.40541 1.80823 4.42223 1.26441 5.52927 1.04393C6.6363 0.82345 7.78386 0.936207 8.82681 1.36794C9.86976 1.79968 10.7613 2.531 11.3886 3.46943C12.0159 4.40785 12.3508 5.51122 12.351 6.64C12.3505 8.1538 11.7491 9.6055 10.6791 10.6763C9.60907 11.7471 8.15781 12.3494 6.64401 12.351L6.64603 12.348Z" fill="#4E5B61"/>
</g>
<defs>
<clipPath id="clip0_9_2">
<rect width="13.29" height="13.291" fill="white"/>
</clipPath>
</defs>
</svg>
