<svg width="20" height="22" viewBox="0 0 20 22" fill="none" xmlns="http://www.w3.org/2000/svg">
<path d="M16.395 10.1123H3.60497C2.16628 10.1123 1 11.2917 1 12.7465V18.3658C1 19.8206 2.16628 21 3.60497 21H16.395C17.8337 21 19 19.8206 19 18.3658V12.7465C19 11.2917 17.8337 10.1123 16.395 10.1123Z" stroke="white" stroke-width="1.2" stroke-linecap="round" stroke-linejoin="round"/>
<path d="M4.85001 10.0718V6.44385C4.85001 5.72896 4.98922 5.02106 5.25976 4.36058C5.53031 3.7001 5.92686 3.09998 6.42677 2.59447C6.92667 2.08896 7.52019 1.68797 8.17334 1.41439C8.8265 1.14081 9.52652 1 10.2335 1V1C10.9406 0.999834 11.6408 1.14054 12.2941 1.41404C12.9474 1.68755 13.541 2.0885 14.0411 2.59403C14.5411 3.09955 14.9377 3.69973 15.2084 4.36029C15.479 5.02085 15.6183 5.72885 15.6183 6.44385V10.0718" stroke="white" stroke-width="1.2" stroke-linecap="round" stroke-linejoin="round"/>
</svg>
