<svg width="20" height="20" viewBox="0 0 20 20" fill="none" xmlns="http://www.w3.org/2000/svg">
<path d="M8.11877 17.6099L9.49777 18.9905C9.64394 19.1341 9.84063 19.2146 10.0455 19.2146C10.2504 19.2146 10.4471 19.1341 10.5933 18.9905L13.3267 16.2561C13.4232 16.1611 13.5394 16.0885 13.667 16.0433C13.7946 15.9981 13.9305 15.9815 14.0652 15.9946C14.2 16.0097 14.3297 16.0545 14.4449 16.126C14.5602 16.1975 14.658 16.2937 14.7314 16.4078C14.8878 16.6685 15.0028 16.952 15.0721 17.2481C15.097 17.3519 15.1298 17.4537 15.1701 17.5527C15.2619 17.7621 15.3974 17.9495 15.5674 18.1025C15.7374 18.2554 15.938 18.3704 16.1559 18.4396C16.5083 18.5444 16.8822 18.554 17.2395 18.4675C17.5969 18.3811 17.925 18.2015 18.1905 17.9471L18.2232 17.9168C18.4656 17.6496 18.6352 17.3244 18.7155 16.9726C18.7958 16.6208 18.7841 16.2543 18.6817 15.9083C18.6204 15.7222 18.5268 15.5483 18.4052 15.3948C18.2414 15.1932 18.0324 15.0332 17.795 14.9279C17.6947 14.8869 17.5914 14.8537 17.4859 14.8287C17.1915 14.7595 16.9097 14.645 16.6505 14.4891C16.5372 14.4159 16.4416 14.3183 16.3708 14.2034C16.3 14.0885 16.2556 13.9592 16.2411 13.825C16.2266 13.6908 16.2422 13.5551 16.2868 13.4277C16.3314 13.3003 16.4038 13.1845 16.4989 13.0886L19.0737 10.5129C19.1457 10.4409 19.2027 10.3554 19.2416 10.2613C19.2804 10.1671 19.3003 10.0662 19.3 9.96441C19.3005 9.86306 19.2807 9.76265 19.2418 9.66906C19.203 9.57547 19.1458 9.49058 19.0737 9.41939L17.6877 8.03058C17.468 8.44827 17.1651 8.81647 16.7975 9.11245C16.473 9.37424 16.1033 9.57438 15.7067 9.70298C15.0433 9.90989 14.3367 9.93591 13.6599 9.77835C12.9831 9.62078 12.3607 9.28534 11.8568 8.80667C11.8429 8.79532 11.83 8.78283 11.8182 8.76933C11.3284 8.26515 10.9833 7.63837 10.8191 6.95476C10.6548 6.27116 10.6776 5.55595 10.8849 4.88417V4.88417C11.1626 4.03236 11.7622 3.32287 12.5556 2.90716L10.5886 0.926647C10.5169 0.854602 10.4316 0.797509 10.3377 0.758646C10.2438 0.719784 10.1431 0.699923 10.0414 0.700236V0.700236C9.93962 0.699897 9.83874 0.719733 9.74463 0.758593C9.65052 0.797453 9.56504 0.854567 9.49311 0.926647L6.8658 3.55372C6.77401 3.64988 6.66136 3.72366 6.53655 3.76939C6.41175 3.81512 6.27813 3.83158 6.14596 3.81747C6.01371 3.80584 5.88562 3.76533 5.77072 3.69878C5.65582 3.63224 5.5569 3.54128 5.48096 3.43234C5.30053 3.15662 5.1724 2.85002 5.10298 2.52787C5.07984 2.42531 5.04783 2.32494 5.00731 2.22793C4.90205 1.99017 4.74215 1.78064 4.54064 1.61639C4.38775 1.49403 4.21379 1.40069 4.02732 1.34097C3.67457 1.23353 3.29952 1.22231 2.94099 1.30849C2.58245 1.39466 2.25346 1.57511 1.988 1.83113L1.96582 1.85097C1.7194 2.11795 1.54677 2.44455 1.46493 2.79859C1.3831 3.15263 1.39491 3.5219 1.49917 3.86999C1.55993 4.05536 1.65317 4.22845 1.77451 4.38117C1.9397 4.5827 2.14988 4.74259 2.38815 4.84799C2.48457 4.88699 2.58409 4.91784 2.68566 4.9402C3.01004 5.0104 3.31859 5.1402 3.59565 5.323C3.70362 5.39942 3.7936 5.49852 3.85927 5.61338C3.92495 5.72823 3.96474 5.85606 3.97586 5.98791C3.98697 6.11976 3.96913 6.25245 3.92361 6.37668C3.87809 6.50091 3.80598 6.61369 3.71232 6.70713L1.02201 9.41122C0.877031 9.55669 0.795624 9.75373 0.795624 9.95915C0.795624 10.1646 0.877031 10.3616 1.02201 10.5071L2.98549 12.4701C3.20321 12.0651 3.49995 11.7079 3.85815 11.4197C4.18203 11.1573 4.55138 10.9568 4.9478 10.828C5.60839 10.6241 6.31114 10.5985 6.9848 10.7539C7.65846 10.9093 8.2791 11.24 8.78378 11.7127C8.80244 11.7302 8.81994 11.7453 8.83627 11.7629C9.3261 12.2673 9.67122 12.8943 9.83543 13.578C9.99965 14.2618 9.97691 14.9772 9.7696 15.6492C9.64275 16.0449 9.4451 16.4142 9.18627 16.7392C8.89193 17.0976 8.529 17.3936 8.11877 17.6099V17.6099Z" stroke="white" stroke-width="1.2" stroke-linecap="round" stroke-linejoin="round"/>
</svg>
