<svg width="22" height="22" viewBox="0 0 22 22" fill="none" xmlns="http://www.w3.org/2000/svg">
<path d="M21 11.0164C20.9962 13.3298 20.1904 15.5703 18.72 17.3562C17.2495 19.1422 15.2054 20.363 12.9358 20.8108C10.6662 21.2587 8.31148 20.9057 6.2729 19.8122C4.23431 18.7186 2.63792 16.9521 1.75571 14.8135C0.873496 12.675 0.760027 10.2967 1.43464 8.08388C2.10924 5.87106 3.5302 3.96057 5.45541 2.6779C7.38063 1.39523 9.69101 0.819728 11.993 1.04944C14.2949 1.27914 16.446 2.29986 18.0798 3.93767C19.0077 4.86789 19.7432 5.97186 20.2443 7.18647C20.7454 8.40109 21.0021 9.70254 21 11.0164V11.0164Z" stroke="white" stroke-width="1.2" stroke-linecap="round" stroke-linejoin="round"/>
<path d="M11.0273 4.22859C11.917 4.22356 12.7987 4.39668 13.6205 4.73774C14.4422 5.0788 15.1874 5.5809 15.8121 6.21445C17.072 7.49696 17.7813 9.2207 17.7889 11.0185C17.7944 11.9103 17.6225 12.7943 17.2831 13.6191C16.9438 14.4439 16.4437 15.1929 15.8121 15.8225C14.5419 17.0936 12.8241 17.8163 11.0273 17.8356C9.23375 17.8413 7.51135 17.1348 6.23841 15.8713C4.96548 14.6078 4.24613 12.8908 4.23837 11.0973V11.0973V11.0468" stroke="white" stroke-width="1.2" stroke-linecap="round" stroke-linejoin="round"/>
<path d="M11.0283 7.53668C11.9488 7.5523 12.8263 7.92893 13.4717 8.5854C14.1171 9.24188 14.4788 10.1256 14.4788 11.0463C14.4788 11.9669 14.1171 12.8507 13.4717 13.5071C12.8263 14.1636 11.9488 14.5402 11.0283 14.5559" stroke="white" stroke-width="1.2" stroke-linecap="round" stroke-linejoin="round"/>
</svg>
