<svg width="6" height="10" viewBox="0 0 6 10" fill="none" xmlns="http://www.w3.org/2000/svg">
<g clip-path="url(#clip0)">
<path d="M3.898 0.254001C3.97741 0.173757 4.07195 0.110056 4.17614 0.0665817C4.28033 0.0231074 4.3921 0.000722885 4.505 0.000722885C4.6179 0.000722885 4.72967 0.0231074 4.83386 0.0665817C4.93805 0.110056 5.03259 0.173757 5.112 0.254001C5.27163 0.415701 5.36115 0.633777 5.36115 0.861C5.36115 1.08822 5.27163 1.3063 5.112 1.468L2.076 4.508L5.112 7.545C5.26341 7.70789 5.34575 7.92315 5.34169 8.14551C5.33763 8.36786 5.24749 8.57998 5.09024 8.73724C4.93298 8.89449 4.72086 8.98463 4.49851 8.98869C4.27615 8.99275 4.06089 8.91041 3.898 8.759L0.249 5.108C0.0893655 4.9463 -0.000144482 4.72822 -0.000144482 4.501C-0.000144482 4.27378 0.0893655 4.0557 0.249 3.894L3.898 0.254001Z" fill="#9DA5AC"/>
</g>
<defs>
<clipPath id="clip0">
<rect width="5.361" height="9.008" fill="white" transform="matrix(-1 0 0 1 5.36099 0)"/>
</clipPath>
</defs>
</svg>
