<svg width="30" height="30" viewBox="0 0 30 30" fill="none" xmlns="http://www.w3.org/2000/svg">
<path d="M15 30C23.2843 30 30 23.2843 30 15C30 6.71573 23.2843 0 15 0C6.71573 0 0 6.71573 0 15C0 23.2843 6.71573 30 15 30Z" fill="#5D41AC"/>
<path d="M10.371 19.8441C10.1209 19.8441 9.88102 19.7448 9.70418 19.5679C9.52733 19.3911 9.42798 19.1512 9.42798 18.9011C9.42798 18.651 9.52733 18.4112 9.70418 18.2343C9.88102 18.0575 10.1209 17.9581 10.371 17.9581H19.471C19.7211 17.9581 19.9609 18.0575 20.1378 18.2343C20.3146 18.4112 20.414 18.651 20.414 18.9011C20.414 19.1512 20.3146 19.3911 20.1378 19.5679C19.9609 19.7448 19.7211 19.8441 19.471 19.8441H10.371ZM10.371 16.0071C10.1263 15.9992 9.89436 15.8964 9.72411 15.7205C9.55387 15.5446 9.45868 15.3094 9.45868 15.0646C9.45868 14.8199 9.55387 14.5847 9.72411 14.4088C9.89436 14.2329 10.1263 14.1301 10.371 14.1221H19.471C19.7156 14.1301 19.9476 14.2329 20.1178 14.4088C20.2881 14.5847 20.3833 14.8199 20.3833 15.0646C20.3833 15.3094 20.2881 15.5446 20.1178 15.7205C19.9476 15.8964 19.7156 15.9992 19.471 16.0071H10.371ZM10.371 12.1701C10.1211 12.1701 9.88154 12.0709 9.70488 11.8942C9.52822 11.7176 9.42898 11.478 9.42898 11.2281C9.42898 10.9783 9.52822 10.7387 9.70488 10.562C9.88154 10.3854 10.1211 10.2861 10.371 10.2861H19.471C19.7209 10.2861 19.9607 10.3854 20.1374 10.5622C20.3142 10.7389 20.4135 10.9787 20.4135 11.2286C20.4135 11.4786 20.3142 11.7183 20.1374 11.8951C19.9607 12.0718 19.7209 12.1711 19.471 12.1711L10.371 12.1701Z" fill="white"/>
</svg>
