<svg xmlns="http://www.w3.org/2000/svg" width="20.958" height="21.037" viewBox="0 0 20.958 21.037"><defs><style>.a{fill:none;stroke:#fff;stroke-linecap:round;stroke-linejoin:round;stroke-width:1.2px;}</style></defs><g transform="translate(0.6 0.6)"><g transform="translate(0 0)"><path class="a" d="M68.414,60.263a9.9,9.9,0,1,1-2.891-7.008A9.9,9.9,0,0,1,68.414,60.263Z" transform="translate(-48.656 -50.347)"/><path class="a" d="M59.588,54.6a6.6,6.6,0,0,1,4.737,1.966,6.828,6.828,0,0,1,1.957,4.756,6.657,6.657,0,0,1-1.957,4.756,6.8,6.8,0,0,1-4.737,1.993A6.7,6.7,0,0,1,52.867,61.4h0V61.35" transform="translate(-49.703 -51.404)"/><path class="a" d="M61.814,58.959a3.475,3.475,0,0,1,0,6.949" transform="translate(-51.928 -52.488)"/></g></g></svg>