<svg xmlns="http://www.w3.org/2000/svg" width="190.144" height="28.532" viewBox="28 31 190.144 28.532"><g data-name="Group 11770"><path d="M161.747 39.964h-.089a4.16 4.16 0 0 0-2.849-2.71c-.596-.178-1.274-.267-2.035-.267a5.906 5.906 0 0 0-3.472 1.114 5.16 5.16 0 0 0-1.202 1.224h-.09l-.36-2.186-1.288.12v17.898h1.797V41.119a5.122 5.122 0 0 1 3.755-2.366 4.698 4.698 0 0 1 .56-.034 4.762 4.762 0 0 1 2.311.526c1.025.568 1.704 1.629 1.704 3.332v12.58h1.798v-12.58c0-2.552 1.918-3.858 4.016-3.858a5.659 5.659 0 0 1 1.879.287c1.516.534 2.405 1.824 2.405 3.966v12.185h1.798V42.942c0-4.102-2.307-5.986-5.663-5.986a6.288 6.288 0 0 0-2.44.458 4.597 4.597 0 0 0-2.535 2.55Zm45.76 0h-.09a4.16 4.16 0 0 0-2.848-2.71c-.596-.178-1.274-.267-2.035-.267a5.906 5.906 0 0 0-3.472 1.114 5.16 5.16 0 0 0-1.203 1.224h-.09l-.36-2.186-1.288.12v17.898h1.798V41.119a5.12 5.12 0 0 1 3.752-2.366 4.7 4.7 0 0 1 .563-.034c2.187 0 4.015 1.063 4.015 3.858v12.58h1.798v-12.58a4.132 4.132 0 0 1 .327-1.668 3.87 3.87 0 0 1 3.688-2.19 5.659 5.659 0 0 1 1.88.287c1.516.534 2.405 1.824 2.405 3.966v12.185h1.797V42.942c0-4.102-2.306-5.986-5.663-5.986-2.307 0-4.164 1.033-4.974 3.008Zm-25.051 9.48V37.23h-1.798v12.275a7.153 7.153 0 0 0 .494 2.755c.825 1.983 2.688 3.158 5.639 3.255a12.242 12.242 0 0 0 .399.006 9.806 9.806 0 0 0 2.5-.293c2.335-.617 3.643-2.182 3.977-4.474a8.665 8.665 0 0 0 .086-1.25V37.23h-1.798v12.214c0 2.806-1.625 4.293-4.698 4.315a9.69 9.69 0 0 1-.067 0 7.126 7.126 0 0 1-1.828-.216c-1.616-.43-2.571-1.494-2.833-3.124a6.161 6.161 0 0 1-.073-.975Zm-35.422 4.68-.24-1.611a9.768 9.768 0 0 1-4.454 1.268 10.988 10.988 0 0 1-.43.008c-4.225 0-6.113-1.945-6.202-7.688h11.895a6.186 6.186 0 0 0 .013-.11 9.48 9.48 0 0 0 .045-.655 4.934 4.934 0 0 0 .002-.146 13.855 13.855 0 0 0-.283-2.918c-.804-3.722-3.251-5.346-6.489-5.346a7.773 7.773 0 0 0-3.133.589c-2.334 1.02-3.629 3.345-3.868 6.84a18.046 18.046 0 0 0-.04 1.23 22.14 22.14 0 0 0 .244 3.49c.718 4.46 3.06 6.446 7.636 6.446a10.913 10.913 0 0 0 2.48-.274 10.245 10.245 0 0 0 2.824-1.124Zm-37.907-14.859h-.09l-.39-2.066-1.348.122v22.211h1.887v-3.829l-.03-2.46.06-.031a5.93 5.93 0 0 0 4.475 2.282 9.164 9.164 0 0 0 .71.027 7.097 7.097 0 0 0 3.67-.879c1.598-.946 2.678-2.704 3.106-5.5a19.78 19.78 0 0 0 .205-2.98 22.159 22.159 0 0 0-.177-2.948c-.594-4.397-2.654-6.065-5.889-6.267a11.35 11.35 0 0 0-.706-.021 8.092 8.092 0 0 0-2.8.48 6.228 6.228 0 0 0-2.683 1.859Zm16.661 2.4h-.06l-.06-2.461-.06-2.005-1.467.122v17.836h1.797V46.01a9.52 9.52 0 0 1 .466-3.025c.861-2.573 2.822-4.115 5.047-4.115a5.021 5.021 0 0 1 1.414.177 3.64 3.64 0 0 1 .205.066l.15-1.914a5.104 5.104 0 0 0-1.019-.185 7.64 7.64 0 0 0-.66-.027 5.725 5.725 0 0 0-4.834 2.822 9.068 9.068 0 0 0-.919 1.857Zm-16.602 9.602V41.18c1.08-1.641 2.818-2.492 5.035-2.492a6.006 6.006 0 0 1 2.536.467c1.64.76 2.595 2.554 2.723 6.144a24.21 24.21 0 0 1 .015.864 18.583 18.583 0 0 1-.146 2.441c-.254 1.908-.83 3.18-1.64 3.995a4.919 4.919 0 0 1-3.668 1.281c-2.457 0-4.076-1.245-4.855-2.613Zm66.407 3.89h1.828V37.169l-1.828.152v17.836Zm-29.608-10.362h-10.307c.18-4.132 1.738-6.229 5.213-6.229a4.968 4.968 0 0 1 3.083.918c1.222.931 1.975 2.623 2.01 5.311ZM176.522 31a2.008 2.008 0 0 0-.566.074c-.436.128-.715.42-.808.856a1.657 1.657 0 0 0-.034.346c0 .754.306 1.106.86 1.226a2.601 2.601 0 0 0 .548.05 2.2 2.2 0 0 0 .565-.065c.544-.145.844-.535.844-1.21 0-.82-.51-1.277-1.409-1.277Z" fill="#627179" fill-rule="evenodd" data-name="Path 3738"/><path d="m35.947 47.336 5.46-5.46a3.087 3.087 0 0 0 .633-.911c.422-.936.312-1.996-.37-2.677a2.163 2.163 0 0 0-1.552-.618c-.706 0-1.452.3-2.035.882L32.7 43.934v-9.583A2.35 2.35 0 0 0 30.35 32 2.35 2.35 0 0 0 28 34.35v20.344a2.35 2.35 0 0 0 2.35 2.35 2.35 2.35 0 0 0 2.35-2.35v-3.956l5.451 5.393a3.116 3.116 0 0 0 .911.635c.94.428 2.005.32 2.687-.361.918-.919.795-2.53-.274-3.598l-5.528-5.47Zm13.816-7.323v14.672a2.345 2.345 0 0 0 2.35 2.34 2.346 2.346 0 0 0 2.35-2.34v-7.53a4.47 4.47 0 0 1 4.48-4.463 4.471 4.471 0 0 1 4.48 4.462v7.53a2.345 2.345 0 0 0 2.35 2.342 2.346 2.346 0 0 0 2.35-2.341V47.25c0-5.05-4.11-9.143-9.18-9.143a9.16 9.16 0 0 0-3.869.851 9.202 9.202 0 0 0-.714.37 2.35 2.35 0 0 0-2.247-1.656 2.345 2.345 0 0 0-2.35 2.34Zm32.406-1.033-5.171 10.557-5.24-10.584a2.3 2.3 0 0 0-3.048-1.057 2.348 2.348 0 0 0-.036.018l-.067.034a2.293 2.293 0 0 0-1.185 1.42c-.152.523-.12 1.1.133 1.629a2.348 2.348 0 0 0 .015.03l7.284 14.707a2.3 2.3 0 0 0 2.06 1.278h.101a2.3 2.3 0 0 0 2.066-1.286l7.218-14.722a2.296 2.296 0 0 0 .22-.743 2.3 2.3 0 0 0-1.21-2.302 2.346 2.346 0 0 0-.056-.028 2.296 2.296 0 0 0-.75-.224 2.3 2.3 0 0 0-2.305 1.217 2.343 2.343 0 0 0-.029.056Zm13.22-1.32c-5.333 0-9.656 4.323-9.656 9.655 0 5.333 4.323 9.656 9.656 9.656a9.655 9.655 0 0 0 9.655-9.656 9.655 9.655 0 0 0-9.655-9.655Zm-51.82 2.354v14.668a2.346 2.346 0 0 0 2.35 2.342 2.347 2.347 0 0 0 2.351-2.342V40.014a2.347 2.347 0 0 0-2.35-2.342 2.346 2.346 0 0 0-2.35 2.342Zm51.82 12.384c-2.817 0-5.1-2.276-5.1-5.083a5.09 5.09 0 0 1 5.1-5.082 5.091 5.091 0 0 1 5.1 5.082 5.092 5.092 0 0 1-5.1 5.083ZM48.28 34.395a2.451 2.451 0 0 0-.02-.307 2.367 2.367 0 0 0-2.034-2.035 2.362 2.362 0 0 0-2.669 2.342 2.455 2.455 0 0 0 .02.307 2.366 2.366 0 0 0 2.034 2.035 2.363 2.363 0 0 0 2.67-2.342Z" fill="#5d41ac" fill-rule="evenodd" data-name="Path 3737"/></g></svg>