<svg xmlns="http://www.w3.org/2000/svg" width="35" height="35" viewBox="0 0 35 35">
  <g id="Grupo_11893" data-name="Grupo 11893" transform="translate(-1927 -226)">
    <g id="Grupo_11887" data-name="Grupo 11887" transform="translate(0 116)">
      <circle id="Elipse_812" data-name="Elipse 812" cx="17.5" cy="17.5" r="17.5" transform="translate(1927 110)" fill="#dae0e3"/>
    </g>
    <path id="Caminho_3787" data-name="Caminho 3787" d="M376.658,270.907a1.258,1.258,0,0,1-1.258-1.257v-5.236a1.259,1.259,0,0,1,1.258-1.258h5.235a1.259,1.259,0,0,1,1.258,1.258v5.236a1.258,1.258,0,0,1-1.258,1.257Zm4.753-1.74v-4.291h-4.292v4.291Zm-13.985,1.74a1.267,1.267,0,0,1-1.276-1.257v-5.236a1.253,1.253,0,0,1,1.276-1.258h5.235a1.259,1.259,0,0,1,1.258,1.258v5.236a1.258,1.258,0,0,1-1.258,1.257Zm4.755-1.74v-4.291H367.89v4.291Zm4.476-7.509A1.26,1.26,0,0,1,375.4,260.4v-5.235a1.259,1.259,0,0,1,1.258-1.257h5.235a1.259,1.259,0,0,1,1.258,1.257V260.4a1.26,1.26,0,0,1-1.258,1.258Zm4.753-1.721v-4.291h-4.292v4.291Zm-13.985,1.721a1.254,1.254,0,0,1-1.276-1.258v-5.235a1.268,1.268,0,0,1,1.276-1.257h5.235a1.259,1.259,0,0,1,1.258,1.257V260.4a1.26,1.26,0,0,1-1.258,1.258Zm4.755-1.721v-4.291H367.89v4.291Z" transform="translate(1569.849 -18.907)" fill="#fff"/>
  </g>
</svg>
