<svg xmlns="http://www.w3.org/2000/svg" width="35" height="35" viewBox="0 0 35 35">
  <g id="Grupo_11886" data-name="Grupo 11886" transform="translate(-1927 -110)">
    <circle id="Elipse_812" data-name="Elipse 812" cx="17.5" cy="17.5" r="17.5" transform="translate(1927 110)" fill="#dae0e3"/>
    <g id="Grupo_11885" data-name="Grupo 11885" transform="translate(-1 0)">
      <path id="Caminho_3785" data-name="Caminho 3785" d="M694.641,214.864a8.84,8.84,0,0,0-4.09-2.538.821.821,0,0,0-1.043.788v.2a.829.829,0,0,0,.615.788,7.085,7.085,0,0,1,3.177,1.988,6.986,6.986,0,0,1,1.971,4.961,7.237,7.237,0,0,1-12.177,5.307,7.179,7.179,0,0,1-1.911-2.858.932.932,0,0,0-.868-.643h0a.91.91,0,0,0-.867,1.2,9.151,9.151,0,0,0,8.568,6.068,9.042,9.042,0,0,0,9.066-9.159A9.12,9.12,0,0,0,694.641,214.864Z" transform="translate(1257.059 -93.124)" fill="#fff"/>
      <path id="Caminho_3786" data-name="Caminho 3786" d="M687.5,212.124h0a8.913,8.913,0,0,0-5.924,2.63,8.733,8.733,0,0,0-2.632,5.932,1.37,1.37,0,0,0,.381.994,1.3,1.3,0,0,0,.941.405h7.3a1.324,1.324,0,0,0,1.323-1.322v-7.318A1.338,1.338,0,0,0,687.5,212.124Zm-.424,8.132H680.81a7.217,7.217,0,0,1,6.267-6.264Z" transform="translate(1257.059 -93.124)" fill="#fff"/>
    </g>
  </g>
</svg>
