<svg xmlns="http://www.w3.org/2000/svg" width="35" height="35" viewBox="0 0 35 35">
  <g id="Grupo_11895" data-name="Grupo 11895" transform="translate(-1927 -226)">
    <g id="Grupo_11887" data-name="Grupo 11887" transform="translate(0 116)">
      <circle id="Elipse_812" data-name="Elipse 812" cx="17.5" cy="17.5" r="17.5" transform="translate(1927 110)" fill="#dae0e3"/>
    </g>
    <path id="Caminho_3793" data-name="Caminho 3793" d="M618.45,185.211a1.2,1.2,0,0,1-.949-.456l-7.975-9.868a1.2,1.2,0,0,1-.06-1.48l2.413-3.629a1.175,1.175,0,0,1,1.049-.566h12.935a1.182,1.182,0,0,1,1.058.578l2.406,3.618a1.213,1.213,0,0,1-.074,1.472l-7.94,9.873a1.2,1.2,0,0,1-.951.459Zm.949-2.792L621.815,175h-4.838Zm1.957-.464,5.6-6.957h-3.327Zm-3.928-.026L615.166,175h-3.343Zm9.732-8.664-1.127-1.7-1.3,1.7Zm-6.073,0-1.691-1.906-1.692,1.906Zm-7.04,0-1.291-1.7-1.125,1.7Zm1.8-.5,1.631-1.84h-3.04Zm7.1,0,1.4-1.839h-3.024Z" transform="translate(1324.762 66.789)" fill="#fff"/>
  </g>
</svg>
