<svg xmlns="http://www.w3.org/2000/svg" width="35" height="35" viewBox="0 0 35 35">
  <g id="Grupo_11885" data-name="Grupo 11885" transform="translate(-1887 -531)">
    <path id="Caminho_3797" data-name="Caminho 3797" d="M17.5,0A17.5,17.5,0,1,1,0,17.5,17.5,17.5,0,0,1,17.5,0Z" transform="translate(1887 531)" fill="#dae0e3"/>
    <path id="Caminho_3798" data-name="Caminho 3798" d="M620.986,101.795a8.477,8.477,0,0,1-8.481-8.5,8.29,8.29,0,0,1,2.481-6.015,8.509,8.509,0,0,1,12.017,0,8.5,8.5,0,0,1-6.017,14.517Zm-.779-1.73a7.9,7.9,0,0,0,.8.04c.261,0,.522-.013.781-.039V97.417A3.71,3.71,0,0,1,621,97.5a3.809,3.809,0,0,1-.8-.085Zm-5.556-4.273a6.886,6.886,0,0,0,3.858,3.843V96.66a4.414,4.414,0,0,1-.869-.868Zm8.832,3.843a6.89,6.89,0,0,0,3.859-3.843h-2.991a4.388,4.388,0,0,1-.868.868Zm-2.5-8.824a2.482,2.482,0,0,0-2.484,2.483,2.515,2.515,0,0,0,2.484,2.5,2.41,2.41,0,0,0,1.785-.737,2.38,2.38,0,0,0,.717-1.766,2.45,2.45,0,0,0-2.5-2.483Zm6.777,3.282a6.736,6.736,0,0,0,0-1.577h-2.655a3.718,3.718,0,0,1,0,1.577Zm-10.881,0a3.732,3.732,0,0,1,0-1.577h-2.657a6.635,6.635,0,0,0,0,1.577Zm10.461-3.276a6.839,6.839,0,0,0-3.86-3.859v2.983a4.1,4.1,0,0,1,.866.876Zm-9.7,0a4.193,4.193,0,0,1,.867-.876V86.958a6.837,6.837,0,0,0-3.859,3.859Zm2.565-1.624a3.809,3.809,0,0,1,.8-.085,3.71,3.71,0,0,1,.781.084V86.536a6.653,6.653,0,0,0-.781-.046,6.752,6.752,0,0,0-.8.047Z" transform="translate(1283.495 455.205)" fill="#fff"/>
  </g>
</svg>
