<svg xmlns="http://www.w3.org/2000/svg" width="116.618" height="37.913" viewBox="0 0 116.618 37.913">
  <path id="Path_2545" data-name="Path 2545" d="M27.6.1a3.592,3.592,0,1,0,3.09,3.09A3.557,3.557,0,0,0,27.6.1Zm-.471,8.483h0a3.531,3.531,0,0,0-3.561,3.561v22.2a3.565,3.565,0,0,0,3.561,3.561h0a3.531,3.531,0,0,0,3.561-3.561v-22.2A3.531,3.531,0,0,0,27.125,8.588ZM12.044,23.2l8.274-8.274a3.906,3.906,0,0,0,.419-5.446c-1.414-1.414-3.823-1.2-5.446.419L7.122,18.066V3.561A3.531,3.531,0,0,0,3.561,0,3.531,3.531,0,0,0,0,3.561V34.352a3.531,3.531,0,0,0,3.561,3.561h0a3.531,3.531,0,0,0,3.561-3.561v-5.97L15.4,36.551a3.906,3.906,0,0,0,5.446.419h0c1.414-1.414,1.2-3.823-.419-5.446Zm89.964-14.61a14.61,14.61,0,1,0,14.61,14.61A14.616,14.616,0,0,0,102.008,8.588Zm0,22.308a7.7,7.7,0,1,1,7.7-7.7A7.71,7.71,0,0,1,102.008,30.9ZM46.815,9.269h0A14.037,14.037,0,0,0,39.9,11.1a3.551,3.551,0,0,0-3.4-2.514h0a3.531,3.531,0,0,0-3.561,3.561v22.2A3.565,3.565,0,0,0,36.5,37.913h0a3.531,3.531,0,0,0,3.561-3.561V22.936a6.772,6.772,0,0,1,6.755-6.755h0a6.738,6.738,0,0,1,6.755,6.755V34.352a3.565,3.565,0,0,0,3.561,3.561h0a3.531,3.531,0,0,0,3.561-3.561V23.093A13.79,13.79,0,0,0,46.815,9.269Zm39.85-.314h0A3.478,3.478,0,0,0,82,10.525L74.2,26.5,66.295,10.473A3.478,3.478,0,0,0,61.634,8.9l-.1.052a3.478,3.478,0,0,0-1.571,4.661L71.008,35.87a3.429,3.429,0,0,0,3.142,1.938h.157a3.486,3.486,0,0,0,3.142-1.938L88.236,13.615A3.493,3.493,0,0,0,86.665,8.955Z" fill="#f4f6f7" opacity="0.8"/>
</svg>
