<svg id="Group_11088" data-name="Group 11088" xmlns="http://www.w3.org/2000/svg" width="100.051" height="35.211" viewBox="0 0 100.051 35.211">
  <path id="Path_1863" data-name="Path 1863" d="M93.269,0H6.782A6.8,6.8,0,0,0,0,6.782V28.429a6.8,6.8,0,0,0,6.782,6.782H93.269a6.8,6.8,0,0,0,6.782-6.782V6.782A6.842,6.842,0,0,0,93.269,0Z"/>
  <path id="Path_1864" data-name="Path 1864" d="M27.631,16.789a3.769,3.769,0,0,0,1.644-.24,4.868,4.868,0,0,0,1.678-1.2,5.479,5.479,0,0,0,1.4-2.809,5.187,5.187,0,0,0,.034-1.267,1.23,1.23,0,0,0-.617.069,5.533,5.533,0,0,0-3.459,2.466,4.426,4.426,0,0,0-.754,2.774A.29.29,0,0,1,27.631,16.789Zm6.611,7.535a5.035,5.035,0,0,1,2.569-4.9.126.126,0,0,1-.034-.1,4.9,4.9,0,0,0-2.021-1.713,5.942,5.942,0,0,0-1.678-.514,4.7,4.7,0,0,0-1.541-.034,8.428,8.428,0,0,0-1.336.308c-.548.206-1.1.411-1.644.582-.788.24-.651.274-1.473,0-.548-.171-1.1-.377-1.644-.582a4.9,4.9,0,0,0-2.329-.24A5.716,5.716,0,0,0,20.13,18.6a6.483,6.483,0,0,0-1.781,2.877,9.477,9.477,0,0,0-.343,3.8,12.452,12.452,0,0,0,.445,2.466,15.535,15.535,0,0,0,1.4,3.494,13.608,13.608,0,0,0,1.37,1.987,7.011,7.011,0,0,0,1.2,1.267,2.634,2.634,0,0,0,2.569.617c.514-.137.993-.343,1.507-.514a4.674,4.674,0,0,1,3.665.137,6.437,6.437,0,0,0,1.576.48,2.79,2.79,0,0,0,1.576-.24,4.407,4.407,0,0,0,1.37-1.13,14.677,14.677,0,0,0,2.5-4.076c.1-.274.206-.548.308-.856A5.3,5.3,0,0,1,34.241,24.324Z" transform="translate(-11.806 -6.345)" fill="#fff"/>
  <path id="Union_20" data-name="Union 20" d="M17.914,18.449V8.515h1.61v1.1h.069a2.394,2.394,0,0,1,2.158-1.2c1.644,0,2.843,1.267,2.843,3.494v.65c0,2.227-1.165,3.494-2.877,3.494a2.334,2.334,0,0,1-2.055-1.164h-.069v3.562Zm1.644-6.508v.513c0,1.37.651,2.227,1.713,2.227.993,0,1.644-.754,1.644-2.227v-.513c0-1.405-.617-2.192-1.644-2.192C20.209,9.749,19.558,10.6,19.558,11.941Zm-10,6.508V8.515h1.61v1.1h.068a2.4,2.4,0,0,1,2.158-1.2c1.644,0,2.843,1.267,2.843,3.494v.65c0,2.227-1.164,3.494-2.877,3.494A2.377,2.377,0,0,1,11.3,14.887h-.069v3.562Zm1.678-6.508v.513c0,1.37.651,2.227,1.713,2.227.959,0,1.644-.754,1.644-2.227v-.513c0-1.405-.617-2.192-1.644-2.192C11.885,9.749,11.235,10.6,11.235,11.941Zm17.3,1.267H30.21v.034c.069.788.788,1.473,2.089,1.473,1.2,0,1.918-.548,1.918-1.439,0-.72-.48-1.1-1.507-1.335l-1.541-.376a2.642,2.642,0,0,1-2.4-2.6c0-1.85,1.61-2.877,3.494-2.877,1.918,0,3.46,1.061,3.494,2.808h-1.61c-.069-.787-.685-1.438-1.884-1.438-1.062,0-1.781.513-1.781,1.37q0,.925,1.336,1.233l1.541.377c1.439.342,2.535,1.027,2.535,2.672,0,1.884-1.507,2.98-3.733,2.98C29.457,16.086,28.567,14.51,28.532,13.208Zm27.162-.685V11.8a3.1,3.1,0,0,1,3.22-3.425c1.986,0,3.22,1.37,3.22,3.494v.72h-4.8V12.8c0,1.2.651,1.986,1.679,1.986a1.376,1.376,0,0,0,1.473-1.028h1.575a2.809,2.809,0,0,1-3.049,2.295C57,16.051,55.694,14.749,55.694,12.523Zm1.644-1.063h3.186a1.637,1.637,0,0,0-1.576-1.814A1.663,1.663,0,0,0,57.338,11.461ZM42.472,12.489v-.582a3.345,3.345,0,1,1,6.679,0v.582c0,2.123-1.165,3.562-3.322,3.562S42.472,14.612,42.472,12.489Zm1.679-.548v.548c0,1.267.548,2.227,1.678,2.227s1.644-.96,1.644-2.227v-.582c0-1.3-.548-2.227-1.644-2.227C44.7,9.68,44.151,10.64,44.151,11.941Zm-6.028,1.883V9.817H37.1v-1.3h1.062V6.7h1.61V8.481h1.439v1.3H39.767v3.87c0,.788.308,1.028,1.131,1.028h.376v1.233a3.822,3.822,0,0,1-.787.069C38.671,15.983,38.123,15.332,38.123,13.824ZM6.645,15.948,5.823,13.38H2.5l-.822,2.569H0L3.288,6.358H5.206L8.46,15.948Zm-3.734-3.9H5.481L4.213,8.07H4.179ZM50.8,15.914v-7.4H52.44v.993h.069a1.8,1.8,0,0,1,1.746-1.1c.24,0,.411.035.548.035V9.885a3.284,3.284,0,0,0-.685-.068c-1.233,0-1.644.754-1.644,1.747v4.349ZM2.089,4.289V0H3.813c.715,0,1.22.378,1.22,1.051a.853.853,0,0,1-.715.925v.041a.968.968,0,0,1,.925,1.052c0,.8-.631,1.219-1.472,1.219Zm.757-.631h.673c.588,0,1.009-.126,1.009-.631,0-.462-.294-.673-.8-.673H2.846Zm0-1.892h.588q.883,0,.884-.63c0-.42-.295-.588-.673-.588h-.8Zm40.7,2.482-.379-1.135H41.7l-.378,1.135H40.6L42.074,0h.841l1.43,4.247ZM41.864,2.522H43L42.411.756ZM36.482,4.247V0h.757V3.616h1.85v.631Zm-4.625,0V0h2.691V.63H32.614V1.808h1.808V2.4H32.614v1.22h1.934v.631Zm-4.834,0V0h1.639a1.335,1.335,0,0,1,1.429,1.387,1.335,1.335,0,0,1-1.429,1.388h-.883V4.247Zm.756-2.1h.546c.63,0,1.009-.168,1.009-.757A.686.686,0,0,0,28.578.63h-.8Zm-7.821,2.1V0H22.65V.63H20.715V1.808h1.808V2.4H20.715v1.22H22.65v.631Zm-2.522,0-.968-1.555h-.042l-.967,1.555h-.841L15.964,2.1,14.619,0H15.5l.925,1.6h.042L17.395,0h.84L16.973,2.144l1.346,2.1Zm-5.214,0V0h.757V4.247Zm-2.564,0L9.322,3.111H7.849L7.471,4.247H6.714L8.185,0h.841l1.429,4.247ZM8.017,2.522H9.153L8.564.756Z" transform="translate(30.724 9.029)" fill="#fff"/>
</svg>
