<svg xmlns="http://www.w3.org/2000/svg" width="190.144" height="25.957" viewBox="0 0 190.144 25.957">
  <g id="Grupo_11770" data-name="Grupo 11770" transform="translate(-35 -36)">
    <path id="Caminho_3737" data-name="Caminho 3737" d="M102.545,584.743a2.236,2.236,0,0,0-2.35,2.1V600a2.365,2.365,0,0,0,4.7,0v-13.16A2.237,2.237,0,0,0,102.545,584.743Zm49.469-.011c-5.333,0-9.656,3.878-9.656,8.663s4.323,8.663,9.656,8.663,9.655-3.878,9.655-8.663S157.348,584.732,152.015,584.732Zm0,13.223a4.589,4.589,0,1,1,5.1-4.56A4.853,4.853,0,0,1,152.015,597.955Zm-10.135-12.98h0a2.425,2.425,0,0,0-3.084.942l-5.172,9.471-5.24-9.5a2.428,2.428,0,0,0-3.084-.932l-.066.03a1.971,1.971,0,0,0-1.038,2.763l7.285,13.194a2.338,2.338,0,0,0,2.061,1.147h.1a2.338,2.338,0,0,0,2.065-1.154l7.218-13.208A1.971,1.971,0,0,0,141.879,584.975ZM102.238,583.9a2.136,2.136,0,1,0-2.035-1.826A2.25,2.25,0,0,0,102.238,583.9Zm13.33,1.229h0a9.978,9.978,0,0,0-4.582,1.1,2.334,2.334,0,0,0-2.248-1.486,2.236,2.236,0,0,0-2.35,2.1v13.164a2.365,2.365,0,0,0,4.7,0V593.25a4.508,4.508,0,0,1,8.959,0v6.756a2.365,2.365,0,0,0,4.7,0v-6.67C124.749,588.806,120.639,585.133,115.568,585.133Zm-23,8.281,5.46-4.9A2.133,2.133,0,0,0,98.3,585.3a2.767,2.767,0,0,0-3.588.237l-5.382,4.829v-8.6a2.364,2.364,0,0,0-4.7,0v18.252a2.364,2.364,0,0,0,4.7,0v-3.55l5.451,4.839a2.777,2.777,0,0,0,3.6.245h0a2.141,2.141,0,0,0-.274-3.228Z" transform="translate(-49.626 -542.654)" fill="#5d41ac"/>
    <path id="Caminho_3738" data-name="Caminho 3738" d="M233.148,579.746c-.9,0-1.408.415-1.408,1.161,0,.885.51,1.161,1.408,1.161s1.408-.359,1.408-1.161C234.557,580.161,234.047,579.746,233.148,579.746Zm15.432,16.78c0,2.571-1.648,3.925-4.765,3.925s-4.734-1.382-4.734-3.925V585.413h-1.8V596.58c0,3.4,2.127,5.474,6.532,5.474,4.435,0,6.563-2.046,6.563-5.474V585.413h-1.8Zm-16.361,5.2h1.828V585.357l-1.828.138Zm-60.983-16.586a7.317,7.317,0,0,0-5.483,2.128h-.089l-.39-1.879-1.348.111V605.7h1.887v-3.484l-.03-2.239.06-.028a6.444,6.444,0,0,0,5.184,2.1c4.315,0,6.982-2.322,6.982-8.514C178.008,587.154,175.551,585.136,171.236,585.136Zm-.569,15.425a5.517,5.517,0,0,1-4.855-2.377v-9.177a5.884,5.884,0,0,1,5.035-2.267c3.356,0,5.274,1.465,5.274,6.8C176.121,599.124,173.843,600.561,170.667,600.561Zm98.44-15.4c-2.307,0-4.164.939-4.974,2.737h-.089c-.719-1.8-2.337-2.709-4.884-2.709a5.9,5.9,0,0,0-4.674,2.128h-.09l-.359-1.989-1.288.11v16.282h1.8V588.951a5.278,5.278,0,0,1,4.315-2.184c2.187,0,4.015.967,4.015,3.511v11.444h1.8V590.278c0-2.322,1.917-3.511,4.015-3.511,2.636,0,4.285,1.216,4.285,3.87v11.085h1.8V590.61C274.77,586.878,272.464,585.164,269.107,585.164Zm-86.693,4.284h-.06l-.06-2.24-.06-1.824-1.468.111v16.226h1.8V593.4c0-3.953,2.517-6.5,5.513-6.5a5.2,5.2,0,0,1,1.619.221l.149-1.741a6.455,6.455,0,0,0-1.677-.193A6.209,6.209,0,0,0,182.414,589.449Zm40.933-4.284c-2.307,0-4.165.939-4.974,2.737h-.089c-.719-1.8-2.337-2.709-4.884-2.709a5.9,5.9,0,0,0-4.674,2.128h-.09l-.359-1.989-1.288.11v16.282h1.8V588.951a5.279,5.279,0,0,1,4.315-2.184c2.187,0,4.015.967,4.015,3.511v11.444h1.8V590.278c0-2.322,1.917-3.511,4.015-3.511,2.636,0,4.285,1.216,4.285,3.87v11.085h1.8V590.61C229.011,586.878,226.7,585.164,223.348,585.164Zm-25.83-.028c-4.674,0-7.042,2.765-7.042,7.879,0,6.3,2.247,9.039,7.88,9.039a11.1,11.1,0,0,0,5.3-1.272l-.239-1.465a10.532,10.532,0,0,1-4.885,1.161c-4.225,0-6.113-1.77-6.2-6.994h11.9a7.253,7.253,0,0,0,.06-.829C204.289,587.375,201.5,585.136,197.517,585.136ZM192.3,592.3c.18-3.76,1.738-5.667,5.213-5.667,2.937,0,5.034,1.548,5.093,5.667Z" transform="translate(-49.626 -543.746)" fill="#627179"/>
  </g>
</svg>
