<svg xmlns="http://www.w3.org/2000/svg" width="190.144" height="28.532" viewBox="0 0 190.144 28.532"><g transform="translate(-35 -36)"><path d="M102.545,585.326a2.346,2.346,0,0,0-2.35,2.342v14.667a2.35,2.35,0,0,0,4.7,0V587.668A2.347,2.347,0,0,0,102.545,585.326Zm49.469-.012a9.655,9.655,0,1,0,9.655,9.655A9.656,9.656,0,0,0,152.015,585.314Zm0,14.738a5.083,5.083,0,1,1,5.1-5.083A5.091,5.091,0,0,1,152.015,600.052Zm-10.135-14.468h0a2.3,2.3,0,0,0-3.084,1.05l-5.172,10.557-5.24-10.583a2.3,2.3,0,0,0-3.084-1.039l-.066.034a2.3,2.3,0,0,0-1.038,3.08l7.285,14.706a2.3,2.3,0,0,0,2.061,1.279h.1a2.3,2.3,0,0,0,2.065-1.287l7.218-14.721A2.3,2.3,0,0,0,141.879,585.585Zm-39.641-1.194a2.362,2.362,0,1,0-2.035-2.035A2.364,2.364,0,0,0,102.238,584.391Zm13.33,1.37h0a9.158,9.158,0,0,0-4.582,1.222,2.351,2.351,0,0,0-4.6.684v14.672a2.35,2.35,0,0,0,4.7,0v-7.531a4.48,4.48,0,0,1,8.959,0v7.531a2.35,2.35,0,0,0,4.7,0V594.9A9.162,9.162,0,0,0,115.568,585.761Zm-23,9.23,5.46-5.46a2.376,2.376,0,1,0-3.324-3.324l-5.382,5.382V582a2.35,2.35,0,1,0-4.7,0v20.344a2.35,2.35,0,0,0,4.7,0v-3.956l5.451,5.393a2.567,2.567,0,0,0,3.6.274h0a2.566,2.566,0,0,0-.274-3.6Z" transform="translate(-49.626 -542.654)" fill="#5d41ac"/><path d="M233.148,579.746c-.9,0-1.408.456-1.408,1.276,0,.973.51,1.276,1.408,1.276s1.408-.4,1.408-1.276C234.557,580.2,234.047,579.746,233.148,579.746Zm15.432,18.444c0,2.826-1.648,4.314-4.765,4.314s-4.734-1.519-4.734-4.314V585.975h-1.8V598.25c0,3.737,2.127,6.016,6.532,6.016,4.435,0,6.563-2.249,6.563-6.016V585.975h-1.8ZM232.219,603.9h1.828V585.914l-1.828.152Zm-60.983-18.231a6.984,6.984,0,0,0-5.483,2.339h-.089l-.39-2.066-1.348.122v22.211h1.887v-3.829l-.03-2.461.06-.031a6.168,6.168,0,0,0,5.184,2.31c4.315,0,6.982-2.553,6.982-9.359C178.008,587.889,175.551,585.671,171.236,585.671Zm-.569,16.955a5.387,5.387,0,0,1-4.855-2.613V589.925a5.688,5.688,0,0,1,5.035-2.492c3.356,0,5.274,1.61,5.274,7.475C176.121,601.046,173.843,602.626,170.667,602.626Zm98.44-16.924a5.026,5.026,0,0,0-4.974,3.008h-.089c-.719-1.976-2.337-2.978-4.884-2.978a5.7,5.7,0,0,0-4.674,2.339h-.09l-.359-2.187-1.288.121v17.9h1.8V589.865a5.145,5.145,0,0,1,4.315-2.4c2.187,0,4.015,1.063,4.015,3.859V603.9h1.8V591.323a3.753,3.753,0,0,1,4.015-3.859c2.636,0,4.285,1.337,4.285,4.254V603.9h1.8V591.688C274.77,587.586,272.464,585.7,269.107,585.7Zm-86.693,4.709h-.06l-.06-2.462-.06-2-1.468.122V603.9h1.8v-9.146c0-4.345,2.517-7.141,5.513-7.141a4.764,4.764,0,0,1,1.619.243l.149-1.914a5.9,5.9,0,0,0-1.677-.212C185.5,585.732,183.433,587.615,182.414,590.411Zm40.933-4.709a5.027,5.027,0,0,0-4.974,3.008h-.089c-.719-1.976-2.337-2.978-4.884-2.978a5.7,5.7,0,0,0-4.674,2.339h-.09l-.359-2.187-1.288.121v17.9h1.8V589.865a5.146,5.146,0,0,1,4.315-2.4c2.187,0,4.015,1.063,4.015,3.859V603.9h1.8V591.323a3.753,3.753,0,0,1,4.015-3.859c2.636,0,4.285,1.337,4.285,4.254V603.9h1.8V591.688C229.011,587.586,226.7,585.7,223.348,585.7Zm-25.83-.031c-4.674,0-7.042,3.039-7.042,8.66,0,6.927,2.247,9.936,7.88,9.936a10.3,10.3,0,0,0,5.3-1.4l-.239-1.61a9.769,9.769,0,0,1-4.885,1.276c-4.225,0-6.113-1.945-6.2-7.688h11.9a8.752,8.752,0,0,0,.06-.911C204.289,588.132,201.5,585.671,197.517,585.671Zm-5.213,7.87c.18-4.133,1.738-6.229,5.213-6.229,2.937,0,5.034,1.7,5.093,6.229Z" transform="translate(-49.626 -543.746)" fill="#627179"/></g></svg>