<svg xmlns="http://www.w3.org/2000/svg" xmlns:xlink="http://www.w3.org/1999/xlink" width="16" height="5" viewBox="0 0 16 5">
  <defs>
    <linearGradient id="linear-gradient" x1="1.047" y1="-0.436" x2="-0.268" y2="1.444" gradientUnits="objectBoundingBox">
      <stop offset="0" stop-color="#0dd1e3"/>
      <stop offset="1" stop-color="#9e51ba"/>
    </linearGradient>
    <clipPath id="clip-frame">
      <rect width="16" height="5"/>
    </clipPath>
  </defs>
  <g id="frame" clip-path="url(#clip-frame)">
    <g id="logo" transform="translate(21.31 -19.597)">
      <path id="Caminho_1" data-name="Caminho 1" d="M3.639.014a.474.474,0,1,0,.407.407A.474.474,0,0,0,3.639.014ZM3.578,1.132h0a.466.466,0,0,0-.47.47V4.53A.47.47,0,0,0,3.577,5h0a.466.466,0,0,0,.47-.47V1.6a.466.466,0,0,0-.47-.47ZM1.588,3.059,2.679,1.968a.515.515,0,0,0,.055-.718.509.509,0,0,0-.718.055L.94,2.382V.469A.466.466,0,0,0,.469,0,.466.466,0,0,0,0,.469V4.53A.466.466,0,0,0,.469,5h0a.466.466,0,0,0,.47-.47V3.743L2.03,4.82a.515.515,0,0,0,.718.055h0a.509.509,0,0,0-.055-.718ZM13.453,1.132A1.927,1.927,0,1,0,15.38,3.059a1.927,1.927,0,0,0-1.927-1.927Zm0,2.942a1.015,1.015,0,1,1,1.015-1.015A1.015,1.015,0,0,1,13.453,4.074ZM6.174,1.222h0a1.851,1.851,0,0,0-.912.242.468.468,0,0,0-.448-.332h0a.466.466,0,0,0-.47.47V4.53a.47.47,0,0,0,.47.47h0a.466.466,0,0,0,.47-.47V3.025a.893.893,0,0,1,.891-.891h0a.889.889,0,0,1,.891.891V4.53A.47.47,0,0,0,7.534,5h0A.466.466,0,0,0,8,4.53V3.045a1.819,1.819,0,0,0-1.83-1.823Zm5.256-.041h0a.459.459,0,0,0-.615.207L9.785,3.5,8.743,1.382a.459.459,0,0,0-.615-.207l-.014.007a.459.459,0,0,0-.207.615L9.364,4.732a.452.452,0,0,0,.414.255H9.8a.46.46,0,0,0,.414-.255L11.636,1.8a.461.461,0,0,0-.206-.616Z" transform="translate(-21 19.597)" fill="url(#linear-gradient)"/>
    </g>
  </g>
</svg>
