<svg xmlns="http://www.w3.org/2000/svg" width="438.306" height="123.979" viewBox="0 0 438.306 123.979"><path data-name="Caminho 4660" d="M124.055 1.912a10.56 10.56 0 00-1.9-1.06 17.674 17.674 0 00-2.109-.634 11.149 11.149 0 00-4.39 0 17.105 17.105 0 00-2.073.634 10.746 10.746 0 00-1.938 1.06 8.525 8.525 0 00-1.69 1.392 11.106 11.106 0 000 15.787 8.69 8.69 0 001.693 1.387 10.12 10.12 0 001.938 1.055 16.238 16.238 0 002.073.634 12.522 12.522 0 002.192.213 12.248 12.248 0 002.2-.213 16.776 16.776 0 002.109-.634 9.937 9.937 0 001.9-1.055 7.589 7.589 0 001.688-1.387 11.106 11.106 0 000-15.787 7.464 7.464 0 00-1.693-1.392zM117.8 33.938a11.185 11.185 0 00-11.184 11.184v67.2a11.187 11.187 0 1022.374 0v-67.2a11.186 11.186 0 00-11.188-11.184zM60.678 78.582l25.787-25.829a11.183 11.183 0 00-15.829-15.8L37.231 70.405c-.1.1-.218.161-.317.265s-.166.213-.26.317l-14.28 14.3V11.262a11.187 11.187 0 10-22.374 0v101.06a11.185 11.185 0 0019.1 7.906l25.771-25.813 25.777 25.73a11.187 11.187 0 0015.8-15.839zm332.456-44.935a45.166 45.166 0 1045.169 45.164 45.214 45.214 0 00-45.166-45.164zm0 67.958a22.792 22.792 0 1122.795-22.795 22.813 22.813 0 01-22.792 22.795zM190.602 33.766a44.624 44.624 0 00-23.46 6.634 11.192 11.192 0 00-21.413 4.551v67.252a11.187 11.187 0 1022.374 0V78.634a22.5 22.5 0 0145 0v33.568a11.187 11.187 0 1022.374 0V78.634a44.927 44.927 0 00-44.875-44.868zm146.239 1.529a11.181 11.181 0 00-15.3 4.005l-29.693 50.753-29.7-50.753a11.185 11.185 0 00-19.307 11.295l39.351 67.257a11.185 11.185 0 0019.309 0l39.345-67.257a11.175 11.175 0 00-4.005-15.3z" /></svg>