<svg xmlns="http://www.w3.org/2000/svg" width="17.143" height="17.137" viewBox="0 0 17.143 17.137"><path d="M6.959 15.089l1.182 1.183a.67.67 0 00.939 0l2.343-2.343a.793.793 0 01.633-.224.782.782 0 01.571.354 2.512 2.512 0 01.292.72 1.826 1.826 0 00.084.261 1.379 1.379 0 00.845.76 1.786 1.786 0 001.744-.422l.028-.026a1.8 1.8 0 00.393-1.721 1.427 1.427 0 00-.237-.44 1.411 1.411 0 00-.523-.4 1.78 1.78 0 00-.265-.085 2.5 2.5 0 01-.716-.291.777.777 0 01-.13-1.2l2.207-2.207a.662.662 0 00.194-.47.652.652 0 00-.194-.467l-1.188-1.19a2.959 2.959 0 01-.763.927 2.928 2.928 0 01-.935.506 3.346 3.346 0 01-3.3-.768.274.274 0 01-.033-.032 3.356 3.356 0 01-.8-3.329h0a2.942 2.942 0 011.432-1.694L9.076.794A.659.659 0 008.607.6h0a.661.661 0 00-.47.194L5.885 3.045a.744.744 0 01-.617.226.778.778 0 01-.57-.33 2.3 2.3 0 01-.324-.775 1.553 1.553 0 00-.082-.257 1.415 1.415 0 00-.4-.524 1.376 1.376 0 00-.44-.236 1.774 1.774 0 00-1.748.42l-.019.017a1.792 1.792 0 00-.4 1.73 1.41 1.41 0 00.236.438 1.426 1.426 0 00.526.4 1.594 1.594 0 00.255.079 2.3 2.3 0 01.78.328.778.778 0 01.1 1.186L.876 8.064a.665.665 0 000 .939l1.683 1.682a2.945 2.945 0 01.748-.9 2.913 2.913 0 01.934-.507 3.361 3.361 0 013.288.758c.016.015.031.028.045.043a3.358 3.358 0 01.8 3.33 2.94 2.94 0 01-.5.934 2.985 2.985 0 01-.915.746zm3.987-8.452" fill="none" stroke="#fff" stroke-linecap="round" stroke-linejoin="round" stroke-width="1.2"/></svg>