<svg xmlns="http://www.w3.org/2000/svg" xmlns:xlink="http://www.w3.org/1999/xlink" width="1002" height="226.277" viewBox="0 0 1002 226.277">
  <defs>
    <linearGradient id="linear-gradient" x1="0.5" y1="-0.833" x2="0.5" y2="1" gradientUnits="objectBoundingBox">
      <stop offset="0" stop-color="#a3a1fb"/>
      <stop offset="1" stop-color="#a3a1fb" stop-opacity="0.102"/>
    </linearGradient>
    <linearGradient id="linear-gradient-2" x1="0.5" y1="-0.833" x2="0.5" y2="1" gradientUnits="objectBoundingBox">
      <stop offset="0" stop-color="#56d9fe"/>
      <stop offset="1" stop-color="#56d9fe" stop-opacity="0.11"/>
    </linearGradient>
    <clipPath id="clip-path">
      <rect width="1002" height="225.953" fill="none"/>
    </clipPath>
  </defs>
  <g id="Grupo_12165" data-name="Grupo 12165" transform="translate(-61.55 -70.895)">
    <rect id="Retângulo_1470" data-name="Retângulo 1470" width="984.24" height="1.172" transform="translate(67 70.999)" fill="#eaf0f4"/>
    <rect id="Retângulo_1470-2" data-name="Retângulo 1470" width="984.24" height="1.172" transform="translate(67 115.999)" fill="#eaf0f4"/>
    <rect id="Retângulo_1470-3" data-name="Retângulo 1470" width="984.24" height="1.172" transform="translate(67 160.999)" fill="#eaf0f4"/>
    <rect id="Retângulo_1470-4" data-name="Retângulo 1470" width="984.24" height="1.172" transform="translate(67 205.999)" fill="#eaf0f4"/>
    <rect id="Retângulo_1470-5" data-name="Retângulo 1470" width="984.24" height="1.172" transform="translate(67 250.999)" fill="#eaf0f4"/>
    <rect id="Retângulo_1470-6" data-name="Retângulo 1470" width="984.24" height="1.172" transform="translate(67 295.999)" fill="#eaf0f4"/>
    <g id="chart" transform="translate(67.818 71.388)">
      <path id="Caminho_383" data-name="Caminho 383" d="M-757.182,11775.262s81.606,115.928,160.99,115.928,83.307-113.945,166.263-113.945,99.039,127.66,162.58,121.838,83.281-49.169,167.542-53.768,130.487,5.484,168.969,6.618,157.079-36.384,157.079-36.384" transform="translate(757.182 -11775.262)" fill="none" stroke="#a3a1fb" stroke-width="1"/>
      <path id="Caminho_384" data-name="Caminho 384" d="M226.24,11815.549s-118.6,37.516-157.079,36.384-86.042-10.789-170.3-6.188-102.667,47.515-166.208,53.338-79.358-122.29-162.314-122.29-87.145,114.4-166.529,114.4-160.99-115.928-160.99-115.928v224.754H226.24Z" transform="translate(757.182 -11775.262)" fill="url(#linear-gradient)"/>
    </g>
    <g id="chart-2" data-name="chart" transform="translate(67.818 114.952)">
      <path id="Caminho_383-2" data-name="Caminho 383" d="M-757.182,11743.464s81.606,69.467,160.99,69.467,84.018-115.979,166.974-115.979,98.328,124.2,161.869,120.707,84.446-52,168.707-54.759,129.322,25.827,167.8,26.506,157.079-21.8,157.079-21.8" transform="translate(757.182 -11696.952)" fill="none" stroke="#56d9fe" stroke-width="1"/>
      <path id="Caminho_384-2" data-name="Caminho 384" d="M226.24,11767.6s-118.6,22.48-157.079,21.8-83.543-29.262-167.8-26.506-105.167,51.27-168.707,54.759-78.913-120.707-161.869-120.707-87.59,115.979-166.974,115.979-160.99-69.467-160.99-69.467v134.678H226.24Z" transform="translate(757.182 -11696.952)" fill="url(#linear-gradient-2)"/>
    </g>
    <g id="Repetição_de_grade_79" data-name="Repetição de grade 79" transform="translate(61.55 70.895)" clip-path="url(#clip-path)">
      <g transform="translate(-95.55 -460.895)">
        <path id="Caminho_350" data-name="Caminho 350" d="M-768.547,11164.811v-225.953" transform="translate(870.097 -10477.963)" fill="none" stroke="#d6d9dd" stroke-width="1"/>
      </g>
      <g transform="translate(-13.55 -460.895)">
        <path id="Caminho_350-2" data-name="Caminho 350" d="M-768.547,11164.811v-225.953" transform="translate(870.097 -10477.963)" fill="none" stroke="#d6d9dd" stroke-width="1"/>
      </g>
      <g transform="translate(68.45 -460.895)">
        <path id="Caminho_350-3" data-name="Caminho 350" d="M-768.547,11164.811v-225.953" transform="translate(870.097 -10477.963)" fill="none" stroke="#d6d9dd" stroke-width="1"/>
      </g>
      <g transform="translate(150.45 -460.895)">
        <path id="Caminho_350-4" data-name="Caminho 350" d="M-768.547,11164.811v-225.953" transform="translate(870.097 -10477.963)" fill="none" stroke="#d6d9dd" stroke-width="1"/>
      </g>
      <g transform="translate(232.45 -460.895)">
        <path id="Caminho_350-5" data-name="Caminho 350" d="M-768.547,11164.811v-225.953" transform="translate(870.097 -10477.963)" fill="none" stroke="#d6d9dd" stroke-width="1"/>
      </g>
      <g transform="translate(314.45 -460.895)">
        <path id="Caminho_350-6" data-name="Caminho 350" d="M-768.547,11164.811v-225.953" transform="translate(870.097 -10477.963)" fill="none" stroke="#d6d9dd" stroke-width="1"/>
      </g>
      <g transform="translate(396.45 -460.895)">
        <path id="Caminho_350-7" data-name="Caminho 350" d="M-768.547,11164.811v-225.953" transform="translate(870.097 -10477.963)" fill="none" stroke="#d6d9dd" stroke-width="1"/>
      </g>
      <g transform="translate(478.45 -460.895)">
        <path id="Caminho_350-8" data-name="Caminho 350" d="M-768.547,11164.811v-225.953" transform="translate(870.097 -10477.963)" fill="none" stroke="#d6d9dd" stroke-width="1"/>
      </g>
      <g transform="translate(560.45 -460.895)">
        <path id="Caminho_350-9" data-name="Caminho 350" d="M-768.547,11164.811v-225.953" transform="translate(870.097 -10477.963)" fill="none" stroke="#d6d9dd" stroke-width="1"/>
      </g>
      <g transform="translate(642.45 -460.895)">
        <path id="Caminho_350-10" data-name="Caminho 350" d="M-768.547,11164.811v-225.953" transform="translate(870.097 -10477.963)" fill="none" stroke="#d6d9dd" stroke-width="1"/>
      </g>
      <g transform="translate(724.45 -460.895)">
        <path id="Caminho_350-11" data-name="Caminho 350" d="M-768.547,11164.811v-225.953" transform="translate(870.097 -10477.963)" fill="none" stroke="#d6d9dd" stroke-width="1"/>
      </g>
      <g transform="translate(806.45 -460.895)">
        <path id="Caminho_350-12" data-name="Caminho 350" d="M-768.547,11164.811v-225.953" transform="translate(870.097 -10477.963)" fill="none" stroke="#d6d9dd" stroke-width="1"/>
      </g>
      <g transform="translate(888.45 -460.895)">
        <path id="Caminho_350-13" data-name="Caminho 350" d="M-768.547,11164.811v-225.953" transform="translate(870.097 -10477.963)" fill="none" stroke="#d6d9dd" stroke-width="1"/>
      </g>
    </g>
  </g>
</svg>
