<svg xmlns="http://www.w3.org/2000/svg" xmlns:xlink="http://www.w3.org/1999/xlink" width="1426" height="150" viewBox="0 0 1426 150"><defs><style>.a{fill:#fff;}.b{fill:#5d41ac;}.c,.d,.h{fill:#707b81;}.c{font-size:16px;font-family:Montserrat-Bold, Montserrat;}.c,.h{font-weight:700;}.d,.h{font-size:8px;letter-spacing:0.05em;}.d{font-family:Montserrat-Regular, Montserrat;}.e{fill:#dae0e3;}.f,.g,.j{fill:none;stroke:#fff;stroke-linecap:round;stroke-linejoin:round;}.f,.g{stroke-miterlimit:10;}.f{stroke-width:1.7px;}.g,.j{stroke-width:2px;}.h{font-family:HelveticaNeue-Bold, Helvetica Neue;}.i{fill:#627179;}.k{filter:url(#a);}</style><filter id="a" x="0" y="0" width="1426" height="150" filterUnits="userSpaceOnUse"><feOffset dy="3" input="SourceAlpha"/><feGaussianBlur stdDeviation="10" result="b"/><feFlood flood-color="#707b81" flood-opacity="0.102"/><feComposite operator="in" in2="b"/><feComposite in="SourceGraphic"/></filter></defs><g transform="translate(30 27)"><g class="k" transform="matrix(1, 0, 0, 1, -30, -27)"><rect class="a" width="1366" height="90" transform="translate(30 27)"/></g><g transform="translate(1081 4207)"><circle class="b" cx="15" cy="15" r="15" transform="translate(205 -4177)"/><path class="a" d="M.942,9.558a.943.943,0,0,1,0-1.886h9.1a.943.943,0,0,1,0,1.886Zm0-3.837a.943.943,0,0,1,0-1.885h9.1a.943.943,0,0,1,0,1.885Zm0-3.837A.942.942,0,0,1,.942,0h9.1a.942.942,0,0,1,0,1.885Z" transform="translate(214.429 -4166.714)"/></g><g transform="translate(-51)"><g transform="translate(-226 -6)"><text class="c" transform="translate(899 62)"><tspan x="0" y="0">130.521.230,02</tspan></text><text class="d" transform="translate(899 45)"><tspan x="0" y="0">SALDO BRUTO</tspan></text></g><g transform="translate(941 4207)"><path class="e" d="M15,0A15,15,0,1,1,0,15,15,15,0,0,1,15,0Z" transform="translate(-308 -4177)"/><g transform="translate(-299.413 -4169.591)"><path class="f" d="M5.576,10.1H9.647l2.617,2.714c3.344,3.49.533,8.821-4.653,8.821h0c-5.186,0-8-5.331-4.653-8.821Z" transform="translate(-1.508 -5.932)"/><path class="f" d="M11.768,5.668H8.036L6,1.5h7.852Z" transform="translate(-3.823 -1.5)"/></g></g></g><g transform="translate(-60)"><g transform="translate(-225 -6)"><text class="c" transform="translate(1092 62)"><tspan x="0" y="0">521.230,02</tspan></text><text class="d" transform="translate(1092 45)"><tspan x="0" y="0">VALOR APLICADO</tspan></text></g><g transform="translate(948 4203)"><path class="e" d="M15,0A15,15,0,1,1,0,15,15,15,0,0,1,15,0Z" transform="translate(-121 -4173)"/><g transform="translate(-111.514 -4163.576)"><line class="g" y1="10.463" transform="translate(5.697 1.24)"/><path class="g" d="M13.854,7.228,8.2,2.5,2.5,7.228" transform="translate(-2.5 -2.5)"/></g></g></g><g transform="translate(-71)"><g transform="translate(-220 -6)"><text class="c" transform="translate(1264 62)"><tspan x="0" y="0">2,34%</tspan></text><text class="d" transform="translate(1264 45)"><tspan x="0" y="0">RENTABILIDADE</tspan></text></g><g transform="translate(968 4203)"><path class="e" d="M15,0A15,15,0,1,1,0,15,15,15,0,0,1,15,0Z" transform="translate(36 -4173)"/><g transform="translate(45.216 -4162.635)"><path class="g" d="M9,1.5h8.7v8.7" transform="translate(-6.034 -1.5)"/><path class="g" d="M9.529,10.8,6.444,13.964,4.9,12.58,1.5,15.823" transform="translate(-1.5 -7.122)"/></g></g></g><g transform="translate(779 -5)"><text class="h" transform="translate(353 44)"><tspan x="0" y="0">CARTEIRA</tspan></text><text class="c" transform="translate(353 61)"><tspan x="0" y="0">Minha Carteira</tspan></text></g><g transform="translate(-7 -5)"><path class="b" d="M102.545,585.326a2.346,2.346,0,0,0-2.35,2.342v14.667a2.35,2.35,0,0,0,4.7,0V587.668A2.347,2.347,0,0,0,102.545,585.326Zm49.469-.012a9.655,9.655,0,1,0,9.655,9.655A9.656,9.656,0,0,0,152.015,585.314Zm0,14.738a5.083,5.083,0,1,1,5.1-5.083A5.091,5.091,0,0,1,152.015,600.052Zm-10.135-14.468h0a2.3,2.3,0,0,0-3.084,1.05l-5.172,10.557-5.24-10.583a2.3,2.3,0,0,0-3.084-1.039l-.066.034a2.3,2.3,0,0,0-1.038,3.08l7.285,14.706a2.3,2.3,0,0,0,2.061,1.279h.1a2.3,2.3,0,0,0,2.065-1.287l7.218-14.721A2.3,2.3,0,0,0,141.879,585.585Zm-39.641-1.194a2.362,2.362,0,1,0-2.035-2.035A2.364,2.364,0,0,0,102.238,584.391Zm13.33,1.37h0a9.158,9.158,0,0,0-4.582,1.222,2.351,2.351,0,0,0-4.6.684v14.672a2.35,2.35,0,0,0,4.7,0v-7.531a4.48,4.48,0,0,1,8.959,0v7.531a2.35,2.35,0,0,0,4.7,0V594.9A9.162,9.162,0,0,0,115.568,585.761Zm-23,9.23,5.46-5.46a2.376,2.376,0,1,0-3.324-3.324l-5.382,5.382V582a2.35,2.35,0,1,0-4.7,0v20.344a2.35,2.35,0,0,0,4.7,0v-3.956l5.451,5.393a2.567,2.567,0,0,0,3.6.274h0a2.566,2.566,0,0,0-.274-3.6Z" transform="translate(-49.626 -542.654)"/><path class="i" d="M233.148,579.746c-.9,0-1.408.456-1.408,1.276,0,.973.51,1.276,1.408,1.276s1.408-.4,1.408-1.276C234.557,580.2,234.047,579.746,233.148,579.746Zm15.432,18.444c0,2.826-1.648,4.314-4.765,4.314s-4.734-1.519-4.734-4.314V585.975h-1.8V598.25c0,3.737,2.127,6.016,6.532,6.016,4.435,0,6.563-2.249,6.563-6.016V585.975h-1.8ZM232.219,603.9h1.828V585.914l-1.828.152Zm-60.983-18.231a6.984,6.984,0,0,0-5.483,2.339h-.089l-.39-2.066-1.348.122v22.211h1.887v-3.829l-.03-2.461.06-.031a6.168,6.168,0,0,0,5.184,2.31c4.315,0,6.982-2.553,6.982-9.359C178.008,587.889,175.551,585.671,171.236,585.671Zm-.569,16.955a5.387,5.387,0,0,1-4.855-2.613V589.925a5.688,5.688,0,0,1,5.035-2.492c3.356,0,5.274,1.61,5.274,7.475C176.121,601.046,173.843,602.626,170.667,602.626Zm98.44-16.924a5.026,5.026,0,0,0-4.974,3.008h-.089c-.719-1.976-2.337-2.978-4.884-2.978a5.7,5.7,0,0,0-4.674,2.339h-.09l-.359-2.187-1.288.121v17.9h1.8V589.865a5.145,5.145,0,0,1,4.315-2.4c2.187,0,4.015,1.063,4.015,3.859V603.9h1.8V591.323a3.753,3.753,0,0,1,4.015-3.859c2.636,0,4.285,1.337,4.285,4.254V603.9h1.8V591.688C274.77,587.586,272.464,585.7,269.107,585.7Zm-86.693,4.709h-.06l-.06-2.462-.06-2-1.468.122V603.9h1.8v-9.146c0-4.345,2.517-7.141,5.513-7.141a4.764,4.764,0,0,1,1.619.243l.149-1.914a5.9,5.9,0,0,0-1.677-.212C185.5,585.732,183.433,587.615,182.414,590.411Zm40.933-4.709a5.027,5.027,0,0,0-4.974,3.008h-.089c-.719-1.976-2.337-2.978-4.884-2.978a5.7,5.7,0,0,0-4.674,2.339h-.09l-.359-2.187-1.288.121v17.9h1.8V589.865a5.146,5.146,0,0,1,4.315-2.4c2.187,0,4.015,1.063,4.015,3.859V603.9h1.8V591.323a3.753,3.753,0,0,1,4.015-3.859c2.636,0,4.285,1.337,4.285,4.254V603.9h1.8V591.688C229.011,587.586,226.7,585.7,223.348,585.7Zm-25.83-.031c-4.674,0-7.042,3.039-7.042,8.66,0,6.927,2.247,9.936,7.88,9.936a10.3,10.3,0,0,0,5.3-1.4l-.239-1.61a9.769,9.769,0,0,1-4.885,1.276c-4.225,0-6.113-1.945-6.2-7.688h11.9a8.752,8.752,0,0,0,.06-.911C204.289,588.132,201.5,585.671,197.517,585.671Zm-5.213,7.87c.18-4.133,1.738-6.229,5.213-6.229,2.937,0,5.034,1.7,5.093,6.229Z" transform="translate(-49.626 -543.746)"/></g><g transform="translate(1599 4207)"><path class="b" d="M15,0A15,15,0,1,1,0,15,15,15,0,0,1,15,0Z" transform="translate(-507 -4177)"/><path class="j" d="M0,0H6.5V6.5" transform="translate(-487.001 -4163.091) rotate(135)"/></g></g></svg>