<svg xmlns="http://www.w3.org/2000/svg" xmlns:xlink="http://www.w3.org/1999/xlink" width="1108" height="366" viewBox="0 0 1108 366"><defs><style>.a,.f,.h,.k{fill:none;}.b{fill:#fff;}.c{fill:#eaf0f4;}.d{fill:#707b81;font-size:11px;}.d,.l{font-family:Montserrat-Medium, Montserrat;font-weight:500;}.e{clip-path:url(#c);}.f{stroke:#a3a1fb;}.g{fill:url(#d);}.h{stroke:#56d9fe;}.i{fill:url(#e);}.j{clip-path:url(#f);}.k{stroke:#d6d9dd;}.l{fill:#627179;font-size:18px;}.m{filter:url(#a);}</style><filter id="a" x="0" y="0" width="1108" height="366" filterUnits="userSpaceOnUse"><feOffset dy="2" input="SourceAlpha"/><feGaussianBlur stdDeviation="3" result="b"/><feFlood flood-opacity="0.039"/><feComposite operator="in" in2="b"/><feComposite in="SourceGraphic"/></filter><clipPath id="c"><rect class="a" width="984" height="14"/></clipPath><linearGradient id="d" x1="0.5" y1="-0.833" x2="0.5" y2="1" gradientUnits="objectBoundingBox"><stop offset="0" stop-color="#a3a1fb"/><stop offset="1" stop-color="#a3a1fb" stop-opacity="0.102"/></linearGradient><linearGradient id="e" x1="0.5" y1="-0.833" x2="0.5" y2="1" gradientUnits="objectBoundingBox"><stop offset="0" stop-color="#56d9fe"/><stop offset="1" stop-color="#56d9fe" stop-opacity="0.11"/></linearGradient><clipPath id="f"><rect class="a" width="1002" height="225.953"/></clipPath></defs><g transform="translate(9 7)"><g class="m" transform="matrix(1, 0, 0, 1, -9, -7)"><rect class="b" width="1090" height="348" rx="10" transform="translate(9 7)"/></g><rect class="c" width="984.24" height="1.172" transform="translate(67 70.999)"/><text class="d" transform="translate(53 75)"><tspan x="-34.87" y="0">12,000</tspan></text><rect class="c" width="984.24" height="1.172" transform="translate(67 115.999)"/><text class="d" transform="translate(53 120)"><tspan x="-35.651" y="0">10,000</tspan></text><rect class="c" width="984.24" height="1.172" transform="translate(67 160.999)"/><text class="d" transform="translate(53 165)"><tspan x="-31.57" y="0">8,000</tspan></text><rect class="c" width="984.24" height="1.172" transform="translate(67 205.999)"/><text class="d" transform="translate(53 210)"><tspan x="-31.273" y="0">6,000</tspan></text><rect class="c" width="984.24" height="1.172" transform="translate(67 250.999)"/><text class="d" transform="translate(53 255)"><tspan x="-31.955" y="0">4,000</tspan></text><rect class="c" width="984.24" height="1.172" transform="translate(67 295.999)"/><text class="d" transform="translate(51 300)"><tspan x="-7.337" y="0">0</tspan></text><g class="e" transform="translate(89 308)"><g transform="translate(-295 -466)"><text class="d" transform="translate(307 477)"><tspan x="-11.374" y="0">Mês</tspan></text></g><g transform="translate(-213 -466)"><text class="d" transform="translate(307 477)"><tspan x="-11.374" y="0">Mês</tspan></text></g><g transform="translate(-131 -466)"><text class="d" transform="translate(307 477)"><tspan x="-11.374" y="0">Mês</tspan></text></g><g transform="translate(-49 -466)"><text class="d" transform="translate(307 477)"><tspan x="-11.374" y="0">Mês</tspan></text></g><g transform="translate(33 -466)"><text class="d" transform="translate(307 477)"><tspan x="-11.374" y="0">Mês</tspan></text></g><g transform="translate(115 -466)"><text class="d" transform="translate(307 477)"><tspan x="-11.374" y="0">Mês</tspan></text></g><g transform="translate(197 -466)"><text class="d" transform="translate(307 477)"><tspan x="-11.374" y="0">Mês</tspan></text></g><g transform="translate(279 -466)"><text class="d" transform="translate(307 477)"><tspan x="-11.374" y="0">Mês</tspan></text></g><g transform="translate(361 -466)"><text class="d" transform="translate(307 477)"><tspan x="-11.374" y="0">Mês</tspan></text></g><g transform="translate(443 -466)"><text class="d" transform="translate(307 477)"><tspan x="-11.374" y="0">Mês</tspan></text></g><g transform="translate(525 -466)"><text class="d" transform="translate(307 477)"><tspan x="-11.374" y="0">Mês</tspan></text></g><g transform="translate(607 -466)"><text class="d" transform="translate(307 477)"><tspan x="-11.374" y="0">Mês</tspan></text></g></g><g transform="translate(67.818 71.388)"><path class="f" d="M-757.182,11775.262s81.606,115.928,160.99,115.928,83.307-113.945,166.263-113.945,99.039,127.66,162.58,121.838,83.281-49.169,167.542-53.768,130.487,5.484,168.969,6.618,157.079-36.384,157.079-36.384" transform="translate(757.182 -11775.262)"/><path class="g" d="M226.24,11815.549s-118.6,37.516-157.079,36.384-86.042-10.789-170.3-6.188-102.667,47.515-166.208,53.338-79.358-122.29-162.314-122.29-87.145,114.4-166.529,114.4-160.99-115.928-160.99-115.928v224.754H226.24Z" transform="translate(757.182 -11775.262)"/></g><g transform="translate(67.818 114.952)"><path class="h" d="M-757.182,11743.464s81.606,69.467,160.99,69.467,84.018-115.979,166.974-115.979,98.328,124.2,161.869,120.707,84.446-52,168.707-54.759,129.322,25.827,167.8,26.506,157.079-21.8,157.079-21.8" transform="translate(757.182 -11696.952)"/><path class="i" d="M226.24,11767.6s-118.6,22.48-157.079,21.8-83.543-29.262-167.8-26.506-105.167,51.27-168.707,54.759-78.913-120.707-161.869-120.707-87.59,115.979-166.974,115.979-160.99-69.467-160.99-69.467v134.678H226.24Z" transform="translate(757.182 -11696.952)"/></g><g class="j" transform="translate(61.55 70.895)"><g transform="translate(-95.55 -460.895)"><path class="k" d="M-768.547,11164.811v-225.953" transform="translate(870.097 -10477.963)"/></g><g transform="translate(-13.55 -460.895)"><path class="k" d="M-768.547,11164.811v-225.953" transform="translate(870.097 -10477.963)"/></g><g transform="translate(68.45 -460.895)"><path class="k" d="M-768.547,11164.811v-225.953" transform="translate(870.097 -10477.963)"/></g><g transform="translate(150.45 -460.895)"><path class="k" d="M-768.547,11164.811v-225.953" transform="translate(870.097 -10477.963)"/></g><g transform="translate(232.45 -460.895)"><path class="k" d="M-768.547,11164.811v-225.953" transform="translate(870.097 -10477.963)"/></g><g transform="translate(314.45 -460.895)"><path class="k" d="M-768.547,11164.811v-225.953" transform="translate(870.097 -10477.963)"/></g><g transform="translate(396.45 -460.895)"><path class="k" d="M-768.547,11164.811v-225.953" transform="translate(870.097 -10477.963)"/></g><g transform="translate(478.45 -460.895)"><path class="k" d="M-768.547,11164.811v-225.953" transform="translate(870.097 -10477.963)"/></g><g transform="translate(560.45 -460.895)"><path class="k" d="M-768.547,11164.811v-225.953" transform="translate(870.097 -10477.963)"/></g><g transform="translate(642.45 -460.895)"><path class="k" d="M-768.547,11164.811v-225.953" transform="translate(870.097 -10477.963)"/></g><g transform="translate(724.45 -460.895)"><path class="k" d="M-768.547,11164.811v-225.953" transform="translate(870.097 -10477.963)"/></g><g transform="translate(806.45 -460.895)"><path class="k" d="M-768.547,11164.811v-225.953" transform="translate(870.097 -10477.963)"/></g><g transform="translate(888.45 -460.895)"><path class="k" d="M-768.547,11164.811v-225.953" transform="translate(870.097 -10477.963)"/></g></g><text class="l" transform="translate(19 36)"><tspan x="0" y="0">Rentabilidade dos Títulos</tspan></text></g></svg>