<svg xmlns="http://www.w3.org/2000/svg" width="14.515" height="18" viewBox="0 0 14.515 18"><path d="M112.826,356.274a3.615,3.615,0,0,1-3.627-3.627v-3.8a3.526,3.526,0,0,1,.878-2.367,3.616,3.616,0,0,1,1.853-1.148v-2.6a4.334,4.334,0,0,1,1.236-3.164,4.447,4.447,0,0,1,3.142-1.29h.3a4.451,4.451,0,0,1,3.143,1.29,4.341,4.341,0,0,1,1.233,3.167v2.6a3.61,3.61,0,0,1,1.851,1.144,3.525,3.525,0,0,1,.882,2.372v3.8a3.617,3.617,0,0,1-3.627,3.627Zm0-9.376a1.943,1.943,0,0,0-1.949,1.95v3.8a1.848,1.848,0,0,0,.578,1.388,1.779,1.779,0,0,0,1.371.579h7.261a1.851,1.851,0,0,0,1.389-.579,1.9,1.9,0,0,0,.56-1.388v-3.8a1.912,1.912,0,0,0-1.949-1.95Zm6.477-1.678v-2.491a2.848,2.848,0,0,0-5.7,0v2.491Zm-3.053,7.573a.593.593,0,0,1-.632-.633v-1.375a1.222,1.222,0,0,1-.412-.946,1.245,1.245,0,0,1,.376-.894,1.2,1.2,0,0,1,.854-.353,1.261,1.261,0,0,1,1.271,1.248,1.221,1.221,0,0,1-.411.946v1.375a.594.594,0,0,1-.634.633Z" transform="translate(-109.199 -338.274)" fill="#fff"/></svg>