<svg xmlns="http://www.w3.org/2000/svg" width="18.394" height="18" viewBox="0 0 18.394 18">
  <path id="Caminho_3775" data-name="Caminho 3775" d="M111.716,313.541a1.216,1.216,0,0,1-.818-.321l-5.551-5.607a1.052,1.052,0,0,1-.265-1.218,10,10,0,0,1,1.859-3.141,8.45,8.45,0,0,1,1.264-1.113c.5-.371.919-.654,1.239-.844s.758-.444,1.349-.758,1.058-.606,1.38-.8c.455-.278.857-.553,1.276-.866a7.075,7.075,0,0,0,2.152-2.678,1.147,1.147,0,0,1,1.038-.652,1.179,1.179,0,0,1,.836.35l5.557,5.593a1.108,1.108,0,0,1,.241,1.3,8.641,8.641,0,0,1-2.6,3.383,14.388,14.388,0,0,1-1.4.989c-.388.241-.925.556-1.609.925-.646.36-1.152.648-1.5.864a13.139,13.139,0,0,0-1.259.923,6.656,6.656,0,0,0-2.117,2.935A1.139,1.139,0,0,1,111.716,313.541Zm-.17-1.979a7.833,7.833,0,0,1,2.3-2.946,15.688,15.688,0,0,1,1.406-1.028c.2-.127.45-.269.739-.432a.586.586,0,0,1-.37-.183l-.109-.108a2.4,2.4,0,0,1-1.037.239,2.741,2.741,0,0,1-1.156-.272.528.528,0,0,1-.262-.792l.175-.273a.636.636,0,0,1,.514-.273.675.675,0,0,1,.267.056,1.188,1.188,0,0,0,.486.114,1.172,1.172,0,0,0,.68-.24c.367-.281.42-.46.423-.524,0-.021.007-.088-.1-.2a.474.474,0,0,0-.273-.094,1.856,1.856,0,0,0-.765.354,7.749,7.749,0,0,1-.851.445,2.1,2.1,0,0,1-.742.136,1.831,1.831,0,0,1-1.334-.548,1.6,1.6,0,0,1-.534-1.161,1.659,1.659,0,0,1,.44-1.035l-.029-.03a.529.529,0,0,1-.171-.411.5.5,0,0,1,.1-.273l-.438.242c-.228.125-.416.228-.562.316-.267.161-.643.411-1.089.732a6.78,6.78,0,0,0-1.07.912,8.653,8.653,0,0,0-1.484,2.4Zm5.142-5.529a.471.471,0,0,1,.178.394.49.49,0,0,1-.143.32l.117-.065c.559-.309.94-.525,1.211-.689.235-.134.533-.338.92-.6l.123-.083a7.322,7.322,0,0,0,1.041-.831,8.976,8.976,0,0,0,1.507-2.069l-4.878-4.926a10.427,10.427,0,0,1-1.65,2.11,9.3,9.3,0,0,1-1.186.955c-.462.316-.853.558-1.131.725-.169.1-.385.229-.648.376a.584.584,0,0,1,.338.179l.108.1a2.411,2.411,0,0,1,.985-.212,2.9,2.9,0,0,1,1.04.206.567.567,0,0,1,.362.335.542.542,0,0,1-.059.467l-.145.255a.565.565,0,0,1-.511.308.668.668,0,0,1-.264-.056,1.3,1.3,0,0,0-.436-.081,1.012,1.012,0,0,0-.641.232c-.333.247-.368.394-.371.434a.315.315,0,0,0,.114.2.225.225,0,0,0,.178.064,1.7,1.7,0,0,0,.829-.336,7.782,7.782,0,0,1,.852-.446,1.883,1.883,0,0,1,.715-.135,1.923,1.923,0,0,1,1.374.561,1.55,1.55,0,0,1,.514,1.136,1.787,1.787,0,0,1-.486,1.12Z" transform="translate(-104.991 -295.541)" fill="#fff"/>
</svg>
